<svg aria-labelledby="titleID" viewBox="0 0 13.34 13.34" xmlns:xlink="http://www.w3.org/1999/xlink" xmlns:svg="http://www.w3.org/2000/svg" class="msportalfx-svg-placeholder" focusable="false">
  <title id="titleID">pricing - emotion3</title>
  <path d="M7.36,14A6.67,6.67,0,1,1,14,7.33,6.67,6.67,0,0,1,7.36,14h0Z" transform="translate(-0.69 -0.66)" style="fill: rgb(57, 153, 198);"></path>
  <path d="M3.36,8.43h7.72a4.33,4.33,0,0,1-3.86,2.62A4.33,4.33,0,0,1,3.36,8.43Z" transform="translate(-0.69 -0.66)" style="fill: rgb(255, 255, 255);"></path>
  <path d="M4.48,3.94A2.28,2.28,0,0,0,2.62,5.35a0.17,0.17,0,0,0,.27.2A2.62,2.62,0,0,1,4.36,5a3,3,0,0,1,1.53.65,0.17,0.17,0,0,0,.11,0H6.09a0.17,0.17,0,0,0,.08-0.19A1.85,1.85,0,0,0,4.48,3.94Z" transform="translate(-0.69 -0.66)" style="fill: rgb(255, 255, 255);"></path>
  <path d="M10.17,3.94A2.28,2.28,0,0,0,8.31,5.35a0.18,0.18,0,0,0,.27.21A2.6,2.6,0,0,1,10,5a3,3,0,0,1,1.53.65,0.17,0.17,0,0,0,.11,0h0.09a0.17,0.17,0,0,0,.08-0.19A1.85,1.85,0,0,0,10.17,3.94Z" transform="translate(-0.69 -0.66)" style="fill: rgb(255, 255, 255);"></path>
</svg>