<svg aria-labelledby="titleID" viewBox="0 0 18.32 16.39" xmlns:xlink="http://www.w3.org/1999/xlink" xmlns:svg="http://www.w3.org/2000/svg" class="msportalfx-svg-placeholder" focusable="false">
  <title id="titleID">pricing - network</title>
  <rect width="2" height="1.16" x="2.13" y="7.89" transform="translate(-5.53 5.94) rotate(-53.43)" style="fill: rgb(229, 229, 229);"></rect>
  <path d="M16.09,4.21a2.22,2.22,0,0,0-1.63.73L9.7,4.2A1.78,1.78,0,0,0,7.64,3.06l-1-.91A1.81,1.81,0,1,0,5.25,3.57l1,0.93a1.61,1.61,0,0,0,.05.83L5.15,7.14l-0.24,0a2.56,2.56,0,0,0-1.25.34A1.84,1.84,0,1,0,1.84,9.51a1.82,1.82,0,0,0,.51-0.08,2.53,2.53,0,0,0,0,.28,2.56,2.56,0,0,0,.39,1.34L2.5,11a2.11,2.11,0,1,0,2.11,2.11,2.09,2.09,0,0,0-.2-0.89,2.44,2.44,0,0,0,1.1,0L6.65,14a1.66,1.66,0,0,0-.19.76,1.68,1.68,0,1,0,2-1.65L7.12,11a2.53,2.53,0,0,0-.21-2.95L7.86,6.6,8,6.62a1.79,1.79,0,0,0,1.2-.47L13.9,6.87A2.23,2.23,0,1,0,16.09,4.21Zm-7.87.61c0,0.22-.4.22-0.4,0A0.2,0.2,0,0,1,8.22,4.82ZM4.91,1.6a0.2,0.2,0,0,1,.2.2c0,0.22-.4.22-0.4,0A0.2,0.2,0,0,1,4.91,1.6ZM1.68,7.67a0.16,0.16,0,1,1,.32,0C2,7.85,1.68,7.85,1.68,7.67Zm0.71,5.47a0.11,0.11,0,0,1,.22,0C2.61,13.26,2.39,13.26,2.39,13.14ZM4.32,9.71a0.59,0.59,0,1,1,.59.59A0.59,0.59,0,0,1,4.32,9.71ZM8.14,15a0.32,0.32,0,1,1,.32-0.32A0.32,0.32,0,0,1,8.14,15Zm7.72-8.59a0.23,0.23,0,1,1,.46,0C16.32,6.69,15.86,6.69,15.86,6.44Z" transform="translate(0 0)" style="fill: rgb(229, 229, 229);"></path>
  <rect width="1.37" height="2" x="2.92" y="10.58" transform="translate(-7.94 7.85) rotate(-54.82)" style="fill: rgb(229, 229, 229);"></rect>
  <circle cx="4.91" cy="9.67" r="1.59" style="fill: rgb(89, 180, 217);"></circle>
  <path d="M5.71,1.79A0.8,0.8,0,1,1,4.91,1h0A0.74,0.74,0,0,1,5.71,1.79Z" transform="translate(0 0)" style="fill: rgb(89, 180, 217);"></path>
  <circle cx="8.02" cy="4.82" r="0.8" style="fill: rgb(89, 180, 217);"></circle>
  <circle cx="1.84" cy="7.67" r="0.84" style="fill: rgb(89, 180, 217);"></circle>
  <circle cx="8.14" cy="14.71" r="0.68" style="fill: rgb(89, 180, 217);"></circle>
  <circle cx="2.5" cy="13.14" r="1.11" style="fill: rgb(89, 180, 217);"></circle>
  <path d="M17.31,6.44a1.23,1.23,0,1,1-2.45,0A1.23,1.23,0,1,1,17.31,6.44Z" transform="translate(0 0)" style="fill: rgb(89, 180, 217);"></path>
  <path d="M17.53,6.2A1.45,1.45,0,0,0,15,5.4a1.47,1.47,0,0,0-.19.3L9,4.81a1,1,0,0,0-1-1,1,1,0,0,0-.48.13L5.73,2.24A0.92,0.92,0,0,0,5.86,1.8a0.83,0.83,0,0,0,0-.14A0.89,0.89,0,0,0,4.91.84a0.95,0.95,0,1,0,0,1.89A0.93,0.93,0,0,0,5.3,2.64L7.13,4.35a0.91,0.91,0,0,0,0,1L5.51,7.89a1.83,1.83,0,0,0-2,.5L2.84,7.88l0,0a0.76,0.76,0,0,0,0-.19,1,1,0,1,0-.3.71L3.2,8.88A1.85,1.85,0,0,0,3.63,11L3,11.93a1.3,1.3,0,0,0-.5-0.1,1.31,1.31,0,1,0,1.31,1.31,1.3,1.3,0,0,0-.34-0.86l0.64-.91a1.82,1.82,0,0,0,1.66,0l1.84,2.78a0.8,0.8,0,0,0-.27.59,0.81,0.81,0,1,0,.84-0.8,0.09,0.09,0,0,1,0,0L6.25,11A1.87,1.87,0,0,0,6,8.16L7.58,5.73a1,1,0,0,0,1.27-.35l5.79,0.9a1.23,1.23,0,0,0,0,.15,1.3,1.3,0,0,0,0,.26A1.45,1.45,0,0,0,16.08,8h0.13a1.45,1.45,0,0,0,1.32-1.56A1.32,1.32,0,0,0,17.53,6.2ZM1.84,8.35a0.68,0.68,0,1,1,.69-0.68A0.69,0.69,0,0,1,1.84,8.35ZM2.5,14a0.91,0.91,0,1,1,.91-0.91A0.91,0.91,0,0,1,2.5,14Zm6.19,0.66a0.55,0.55,0,1,1-.55-0.55A0.55,0.55,0,0,1,8.69,14.71ZM4.91,11a1.3,1.3,0,1,1,1.3-1.3A1.3,1.3,0,0,1,4.91,11ZM4.26,1.79a0.66,0.66,0,0,1,.67-0.65H5a0.59,0.59,0,0,1,.59.54,0.64,0.64,0,0,1,0,.1h0A0.65,0.65,0,0,1,4.26,1.79ZM8,5.4A0.58,0.58,0,1,1,8.6,4.82,0.58,0.58,0,0,1,8,5.4Zm9.07,1v0a1,1,0,0,1-2,.18,1.64,1.64,0,0,1,0-.22A1,1,0,0,1,16,5.32h0.09a1,1,0,0,1,1,.92A1.11,1.11,0,0,1,17.09,6.42Z" transform="translate(0 0)" style="fill: rgb(0, 114, 198);"></path>
</svg>