<svg aria-labelledby="titleID" viewBox="0 0 17.97 15.31" xmlns:xlink="http://www.w3.org/1999/xlink" xmlns:svg="http://www.w3.org/2000/svg" class="msportalfx-svg-placeholder" focusable="false">
  <title id="titleID">text</title>
  <polygon points="12.2 10.27 13.43 10.29 12.86 8.84 12.2 10.27" style="fill: rgb(89, 180, 217);"></polygon>
  <path d="M17.3,12.88a3.69,3.69,0,0,0,.84-2.25c0-2.34-2.25-4.28-5.11-4.32S7.83,8.12,7.8,10.47,10,14.75,12.9,14.79a6.17,6.17,0,0,0,1.74-.22,15.8,15.8,0,0,0,1.47.76,12.8,12.8,0,0,0,1.95.52,9.92,9.92,0,0,1-.79-1.58A3.77,3.77,0,0,1,17.3,12.88Zm-3.15-.36-0.33-1-1.64,0-0.44,1H10.82L12.6,8.2h0.82l1.64,4.33h-0.9Z" transform="translate(-0.17 -0.54)" style="fill: rgb(57, 153, 198);"></path>
  <polygon points="12.2 10.27 13.43 10.27 12.84 8.83 12.2 10.27" style="fill: rgb(57, 153, 198);"></polygon>
  <path d="M4.88,4.69a5.29,5.29,0,0,0,.24,1.39l0.23-.21a3.78,3.78,0,0,0,.71-1.18,2.87,2.87,0,0,0-.59-0.06A3.09,3.09,0,0,0,4.88,4.69Z" transform="translate(-0.17 -0.54)" style="fill: rgb(160, 161, 162);"></path>
  <path d="M3.72,5.28a0.64,0.64,0,0,0-.13.61A0.77,0.77,0,0,0,4,6.41a0.89,0.89,0,0,0,.59,0,5.54,5.54,0,0,1-.29-1.51A1.79,1.79,0,0,0,3.72,5.28Z" transform="translate(-0.17 -0.54)" style="fill: rgb(160, 161, 162);"></path>
  <path d="M7.47,0.55C3.74,0.38.61,2.73,0.47,5.8a4.83,4.83,0,0,0,.92,3,4.93,4.93,0,0,1-.07,1.81,13,13,0,0,1-1.15,2,16.74,16.74,0,0,0,2.58-.53,20.66,20.66,0,0,0,2-.88A8.07,8.07,0,0,0,7,11.64,11,11,0,0,1,7,9.92C7.32,7.26,9.69,5.45,12.74,5.5c0.44,0,1.19,0,1.19,0C13.5,2.81,10.82.7,7.47,0.55Zm0.23,6A1.59,1.59,0,0,1,6,7.65l-0.35,0,0.09-.56a1.23,1.23,0,0,0,1.39-.64A1.36,1.36,0,0,0,7,5.35,1.39,1.39,0,0,0,6.59,4.9a4.35,4.35,0,0,1-.83,1.35A1.91,1.91,0,0,1,3.87,7,1.32,1.32,0,0,1,3,6,1.19,1.19,0,0,1,3.3,4.9a2.44,2.44,0,0,1,1-.65c0-.19,0-0.39,0-0.6l0-.31H3.6V2.78H4.46V2.7A2.71,2.71,0,0,1,4.56,2L4.81,2.15,5.09,2.21c0,0.06,0,.28-0.06.54v0H5.87V3.34H5c0,0.13,0,.27,0,0.38s0,0.26,0,.39a3.6,3.6,0,0,1,1.31,0h0c0-.13.06-0.21,0.06-0.22L6.86,4.05s0,0.13-.08.3a2,2,0,0,1,.74.7A1.91,1.91,0,0,1,7.71,6.57Z" transform="translate(-0.17 -0.54)" style="fill: rgb(160, 161, 162);"></path>
</svg>