<?xml version="1.0" encoding="utf-8"?>
<!-- Generator: Adobe Illustrator 16.0.0, SVG Export Plug-In . SVG Version: 6.00 Build 0)  -->
<!DOCTYPE svg PUBLIC "-//W3C//DTD SVG 1.1//EN" "http://www.w3.org/Graphics/SVG/1.1/DTD/svg11.dtd">
<svg version="1.1" id="Layer_1" xmlns="http://www.w3.org/2000/svg" xmlns:xlink="http://www.w3.org/1999/xlink" x="0px" y="0px"
	 width="278px" height="278px" viewBox="0 0 278 278" enable-background="new 0 0 278 278" xml:space="preserve">
<rect fill="#049580" width="278" height="278"/>
<rect y="20.691" fill="#049580" width="277.999" height="236.618"/>
<g>
	<defs>
		<rect id="SVGID_1_" width="278" height="278"/>
	</defs>
	<clipPath id="SVGID_2_">
		<use xlink:href="#SVGID_1_"  overflow="visible"/>
	</clipPath>
	<path clip-path="url(#SVGID_2_)" fill="#FFFFFF" d="M174.949,94.458c-16.379-6.561-33.58-9.314-51.506-5.703
		c-35.156,7.081-59.139,27.104-80.694,50.633c16.434,18.538,35.261,33.744,59.311,43.711c23.363,9.683,47.107,10.517,70.964,1.2
		c24.7-9.647,43.866-24.925,60.108-43.129c0.768-0.86,1.358-1.832,2.118-2.87C218.832,119.831,199.647,104.352,174.949,94.458"/>
	<path clip-path="url(#SVGID_2_)" fill="#414142" d="M138.999,104.179c-23.03,0-41.7,15.891-41.7,35.493
		c0,19.603,18.67,35.493,41.7,35.493c23.03,0,41.7-15.891,41.7-35.493C180.699,120.07,162.029,104.179,138.999,104.179
		 M122.416,138.199c-3.305,0.015-6.006-2.925-5.969-6.497c0.036-3.454,2.739-6.333,5.957-6.342c3.223-0.01,5.963,2.872,6.004,6.315
		C128.449,135.181,125.692,138.184,122.416,138.199 M139.043,165.97c-6.099,0.023-11.453-5.067-11.47-10.906
		c-0.014-4.713,5.107-8.56,11.399-8.561c6.275-0.001,11.458,3.849,11.47,8.516C150.455,160.873,145.175,165.946,139.043,165.97
		 M155.462,138.197c-3.238-0.066-5.896-2.952-5.898-6.403c-0.003-3.515,2.821-6.498,6.092-6.435c3.243,0.063,5.856,2.923,5.86,6.412
		C161.521,135.343,158.769,138.265,155.462,138.197"/>
</g>
</svg>
