<?xml version="1.0" encoding="utf-8"?>
<!-- Generator: Adobe Illustrator 16.0.0, SVG Export Plug-In . SVG Version: 6.00 Build 0)  -->
<!DOCTYPE svg PUBLIC "-//W3C//DTD SVG 1.1//EN" "http://www.w3.org/Graphics/SVG/1.1/DTD/svg11.dtd">
<svg version="1.1" id="Layer_1" xmlns="http://www.w3.org/2000/svg" xmlns:xlink="http://www.w3.org/1999/xlink" x="0px" y="0px"
	 width="97.625px" height="98.25px" viewBox="1.75 0.5 97.625 98.25" enable-background="new 1.75 0.5 97.625 98.25"
	 xml:space="preserve">
<g>
	<g id="Ellipse_2_98_">
		<g>
			<path fill="#3999C6" d="M51.074,17.818c-17.696,0-32.039,14.34-32.039,32.033c0,17.695,14.342,32.036,32.039,32.036
				c17.688,0,32.034-14.341,32.034-32.036C83.108,32.157,68.763,17.818,51.074,17.818z M58.896,36.441
				c2.261,0,4.101,1.834,4.101,4.1c0,2.264-1.838,4.101-4.101,4.101c-2.262,0-4.1-1.835-4.1-4.101
				C54.796,38.276,56.634,36.441,58.896,36.441z M41.759,36.441c2.262,0,4.098,1.834,4.098,4.1c0,2.264-1.834,4.101-4.098,4.101
				c-2.26,0-4.098-1.835-4.098-4.101C37.661,38.276,39.498,36.441,41.759,36.441z M51.594,70.522
				c-17.717,0-22.253-18.686-22.253-18.686h3.562c0,0,4.21,15.131,18.691,15.131c12.566,0,16.902-15.131,16.902-15.131h3.559
				C72.055,51.837,68.476,70.522,51.594,70.522z"/>
		</g>
	</g>
	<g>
		<g>
			<defs>
				<polygon id="SVGID_1_" points="89.917,10.497 13.606,86.806 100.195,89.12 				"/>
			</defs>
			<clipPath id="SVGID_2_">
				<use xlink:href="#SVGID_1_"  overflow="visible"/>
			</clipPath>
			<g id="Ellipse_2_96_" clip-path="url(#SVGID_2_)">
				<g>
					<path fill="#0072C6" d="M51.16,17.753c-17.696,0-32.042,14.342-32.042,32.032c0,17.696,14.346,32.038,32.042,32.038
						c17.688,0,32.034-14.342,32.034-32.038C83.197,32.095,68.848,17.753,51.16,17.753z M58.979,36.376
						c2.263,0,4.099,1.836,4.099,4.1s-1.835,4.1-4.099,4.1c-2.259,0-4.096-1.835-4.096-4.1
						C54.883,38.213,56.72,36.376,58.979,36.376z M41.845,36.376c2.26,0,4.098,1.836,4.098,4.1s-1.836,4.1-4.098,4.1
						s-4.099-1.835-4.099-4.1C37.748,38.213,39.583,36.376,41.845,36.376z M51.677,70.46c-17.713,0-22.248-18.687-22.248-18.687
						h3.56c0,0,4.211,15.129,18.688,15.129c12.569,0,16.904-15.129,16.904-15.129h3.559C72.14,51.773,68.562,70.46,51.677,70.46z"/>
				</g>
			</g>
		</g>
	</g>
</g>
<g>
	<polygon fill="#B8D432" points="7.248,26.874 7.248,5.977 26.961,5.977 26.961,0.5 1.77,0.5 1.77,26.874 	"/>
	<polygon fill="#B8D432" points="7.248,74.792 1.77,74.792 1.77,98.805 26.961,98.805 26.961,93.328 7.248,93.328 	"/>
</g>
<g>
	<polygon fill="#B8D432" points="94.6,74.792 94.6,93.328 74.882,93.328 74.882,98.805 100.076,98.805 100.076,74.792 	"/>
	<polygon fill="#B8D432" points="94.6,26.874 100.076,26.874 100.076,0.5 74.882,0.5 74.882,5.977 94.6,5.977 	"/>
</g>
</svg>
