<?xml version="1.0" encoding="utf-8"?>
<!-- Generator: Adobe Illustrator 16.0.0, SVG Export Plug-In . SVG Version: 6.00 Build 0)  -->
<!DOCTYPE svg PUBLIC "-//W3C//DTD SVG 1.1//EN" "http://www.w3.org/Graphics/SVG/1.1/DTD/svg11.dtd">
<svg version="1.1" id="Layer_1" xmlns="http://www.w3.org/2000/svg" xmlns:xlink="http://www.w3.org/1999/xlink" x="0px" y="0px"
	 width="100px" height="89.75px" viewBox="0 3.5 100 89.75" enable-background="new 0 3.5 100 89.75" xml:space="preserve">
<g id="Ellipse_2">
	<g>
		<path fill="#3999C6" d="M42.958,8.033c-23.542,0-42.623,19.079-42.623,42.614c0,23.54,19.08,42.62,42.623,42.62
			c23.532,0,42.616-19.08,42.616-42.62C85.574,27.11,66.49,8.033,42.958,8.033z M53.364,32.806c3.007,0,5.452,2.441,5.452,5.455
			c0,3.012-2.445,5.453-5.452,5.453c-3.011,0-5.453-2.442-5.453-5.453C47.912,35.248,50.354,32.806,53.364,32.806z M30.568,32.806
			c3.006,0,5.448,2.441,5.448,5.455c0,3.012-2.442,5.453-5.448,5.453c-3.01,0-5.453-2.442-5.453-5.453
			C25.114,35.248,27.558,32.806,30.568,32.806z M43.647,78.148c-23.569,0-29.6-24.858-29.6-24.858h4.735
			c0,0,5.602,20.127,24.865,20.127c16.717,0,22.487-20.127,22.487-20.127h4.733C70.868,53.29,66.109,78.148,43.647,78.148z"/>
	</g>
</g>
<g>
	<g>
		<defs>
			<polygon id="SVGID_1_" points="94.632,-1.708 -6.888,99.812 108.305,102.888 			"/>
		</defs>
		<clipPath id="SVGID_2_">
			<use xlink:href="#SVGID_1_"  overflow="visible"/>
		</clipPath>
		<g id="Ellipse_2_88_" clip-path="url(#SVGID_2_)">
			<g>
				<path fill="#0072C6" d="M43.072,7.947c-23.54,0-42.624,19.079-42.624,42.614c0,23.541,19.083,42.621,42.624,42.621
					c23.532,0,42.618-19.08,42.618-42.621C85.689,27.025,66.604,7.947,43.072,7.947z M53.476,32.72c3.01,0,5.453,2.441,5.453,5.453
					c0,3.013-2.443,5.454-5.453,5.454c-3.007,0-5.45-2.441-5.45-5.454C48.025,35.162,50.468,32.72,53.476,32.72z M30.68,32.72
					c3.007,0,5.45,2.441,5.45,5.453c0,3.013-2.443,5.454-5.45,5.454c-3.008,0-5.453-2.441-5.453-5.454
					C25.228,35.162,27.672,32.72,30.68,32.72z M43.761,78.061c-23.567,0-29.6-24.858-29.6-24.858h4.735
					c0,0,5.603,20.13,24.865,20.13c16.719,0,22.489-20.13,22.489-20.13h4.733C70.983,53.205,66.221,78.061,43.761,78.061z"/>
			</g>
		</g>
	</g>
</g>
<path fill="#FF8C00" d="M98.439,20.476h-1.817c-0.833,0-1.718-0.651-1.968-1.449l-1.039-2.536c-0.395-0.733-0.234-1.815,0.355-2.405
	L95.26,12.8c0.587-0.593,0.587-1.554,0-2.145l-2.143-2.143c-0.591-0.589-1.56-0.589-2.144,0l-1.291,1.292
	c-0.589,0.588-1.67,0.749-2.405,0.354l-2.533-1.044c-0.794-0.246-1.446-1.129-1.446-1.963V5.329c0-0.83-0.684-1.513-1.515-1.513
	h-3.026c-0.839,0-1.52,0.683-1.52,1.513V7.15c0,0.833-0.649,1.717-1.444,1.963l-2.535,1.044c-0.737,0.396-1.815,0.234-2.406-0.354
	l-1.29-1.292c-0.588-0.589-1.557-0.589-2.138,0l-2.145,2.143c-0.588,0.591-0.588,1.554,0,2.144l1.288,1.287
	c0.589,0.591,0.75,1.672,0.355,2.405l-1.043,2.54c-0.249,0.793-1.132,1.446-1.966,1.446l-1.815-0.001
	c-0.831,0-1.52,0.682-1.52,1.514v3.028c0,0.835,0.688,1.517,1.52,1.517h1.815c0.834,0.001,1.717,0.652,1.959,1.445l1.05,2.536
	c0.392,0.737,0.233,1.821-0.355,2.409l-1.291,1.286c-0.585,0.591-0.585,1.554,0,2.143l2.147,2.146c0.584,0.586,1.55,0.586,2.138,0
	l1.29-1.291c0.587-0.586,1.669-0.748,2.398-0.351l2.543,1.042c0.795,0.248,1.444,1.13,1.444,1.965v1.813
	c0,0.831,0.681,1.514,1.52,1.514h3.026c0.831,0,1.515-0.683,1.515-1.514v-1.813c0-0.835,0.652-1.718,1.446-1.965l2.536-1.042
	c0.735-0.397,1.818-0.234,2.406,0.351l1.287,1.291c0.586,0.586,1.554,0.586,2.144,0l2.143-2.146c0.587-0.59,0.587-1.553,0-2.143
	l-1.289-1.285c-0.59-0.588-0.75-1.672-0.355-2.409l1.039-2.536c0.252-0.794,1.143-1.444,1.968-1.444h1.817
	c0.828,0,1.513-0.682,1.513-1.516v-3.031C99.952,21.157,99.268,20.476,98.439,20.476 M87.842,23.502c0,4.185-3.389,7.57-7.572,7.57
	c-4.18,0-7.575-3.385-7.575-7.57c0-4.181,3.396-7.572,7.575-7.572C84.453,15.93,87.842,19.321,87.842,23.502"/>
<path fill="#DD5900" d="M98.363,20.412h-1.816c-0.836-0.002-1.72-0.654-1.962-1.447l-1.047-2.535
	c-0.392-0.737-0.232-1.823,0.355-2.41l1.292-1.287c0.584-0.59,0.584-1.555,0-2.144l-1.762-1.759l-8.636,8.637
	c1.797,1.383,2.971,3.529,2.971,5.973c0,4.182-3.394,7.572-7.573,7.572c-2.44,0-4.589-1.174-5.977-2.968l-8.627,8.628l1.758,1.758
	c0.585,0.589,1.557,0.589,2.145,0l1.288-1.292c0.588-0.586,1.668-0.748,2.402-0.352l2.54,1.041c0.79,0.247,1.444,1.131,1.444,1.963
	v1.82c0,0.832,0.685,1.513,1.512,1.513h3.027c0.838,0,1.518-0.682,1.518-1.513v-1.82c0-0.832,0.649-1.716,1.444-1.963l2.54-1.041
	c0.735-0.397,1.813-0.238,2.4,0.352l1.299,1.292c0.582,0.589,1.554,0.589,2.136,0l2.145-2.143c0.587-0.591,0.587-1.553,0-2.141
	l-1.291-1.288c-0.589-0.592-0.749-1.673-0.354-2.407l1.045-2.539c0.245-0.794,1.129-1.446,1.966-1.446l1.818,0.001
	c0.83,0,1.511-0.681,1.511-1.513v-3.027C99.875,21.096,99.194,20.412,98.363,20.412z"/>
</svg>
