<?xml version="1.0" encoding="utf-8"?>
<!-- Generator: Adobe Illustrator 16.0.0, SVG Export Plug-In . SVG Version: 6.00 Build 0)  -->
<!DOCTYPE svg PUBLIC "-//W3C//DTD SVG 1.1//EN" "http://www.w3.org/Graphics/SVG/1.1/DTD/svg11.dtd">
<svg version="1.1" id="Layer_1" xmlns="http://www.w3.org/2000/svg" xmlns:xlink="http://www.w3.org/1999/xlink" x="0px" y="0px"
	 width="278px" height="278px" viewBox="0 0 278 278" enable-background="new 0 0 278 278" xml:space="preserve">
<rect y="-0.001" fill="#049580" width="278.001" height="278.001"/>
<rect y="20.69" fill="#049580" width="278" height="236.62"/>
<g>
	<defs>
		<rect id="SVGID_1_" width="278" height="278"/>
	</defs>
	<clipPath id="SVGID_2_">
		<use xlink:href="#SVGID_1_"  overflow="visible"/>
	</clipPath>
	<path clip-path="url(#SVGID_2_)" fill="#010101" d="M140.299,105.899c-21.833-0.045-39.737,15.111-39.807,33.696
		c-0.068,18.565,17.752,33.821,39.585,33.889c21.792,0.066,39.741-15.127,39.813-33.701
		C179.961,121.224,162.108,105.944,140.299,105.899"/>
	<path clip-path="url(#SVGID_2_)" fill="none" stroke="#FFFFFF" stroke-miterlimit="10" d="M156.076,125.99
		c3.087,0.06,5.575,2.783,5.581,6.104c0.004,3.402-2.617,6.183-5.766,6.119c-3.082-0.064-5.613-2.811-5.616-6.097
		C150.272,128.77,152.963,125.929,156.076,125.99z"/>
	<path clip-path="url(#SVGID_2_)" fill="none" stroke="#FFFFFF" stroke-miterlimit="10" d="M124.418,125.991
		c3.068-0.009,5.677,2.735,5.716,6.012c0.04,3.339-2.586,6.197-5.705,6.212c-3.146,0.015-5.717-2.785-5.682-6.186
		C118.78,128.741,121.354,126,124.418,125.991z"/>
	<path clip-path="url(#SVGID_2_)" fill="none" stroke="#FFFFFF" stroke-miterlimit="10" d="M140.644,165.678
		c-10.816,0.111-20.928-6.383-22.692-14.717h44.479C160.969,158.86,150.964,165.571,140.644,165.678z"/>
	<path clip-path="url(#SVGID_2_)" fill="#FFFFFF" d="M175.261,94.64c-16.333-6.644-33.514-9.485-51.464-5.965
		c-35.206,6.901-59.33,26.802-81.051,50.221c16.304,18.621,35.024,33.923,59.004,44.013c23.294,9.802,47.033,10.757,70.955,1.562
		c24.77-9.521,44.042-24.7,60.412-42.822c0.772-0.855,1.371-1.825,2.138-2.859C218.965,120.235,199.89,104.659,175.261,94.64"/>
	<path clip-path="url(#SVGID_2_)" fill="#414142" d="M139.112,104.196c-22.931-0.047-41.736,15.873-41.809,35.394
		c-0.071,19.502,18.645,35.527,41.577,35.598c22.889,0.069,41.741-15.89,41.816-35.4
		C180.771,120.292,162.021,104.243,139.112,104.196 M155.673,125.302c3.243,0.063,5.857,2.923,5.862,6.412
		c0.004,3.573-2.748,6.495-6.055,6.427c-3.237-0.066-5.896-2.952-5.898-6.404C149.578,128.222,152.403,125.239,155.673,125.302
		 M122.423,125.303c3.222-0.01,5.962,2.873,6.003,6.315c0.042,3.507-2.715,6.51-5.992,6.525c-3.304,0.016-6.005-2.925-5.968-6.498
		C116.501,128.191,119.205,125.312,122.423,125.303 M139.465,164.644c-11.36,0.115-21.98-6.705-23.833-15.459
		c8.705,5.629,15.61,7.042,23.369,7.042c7.795,0,16.362-2.195,23.349-7.042C160.813,157.482,150.305,164.532,139.465,164.644"/>
</g>
</svg>
