<?xml version="1.0" encoding="utf-8"?>
<!-- Generator: Adobe Illustrator 16.0.0, SVG Export Plug-In . SVG Version: 6.00 Build 0)  -->
<!DOCTYPE svg PUBLIC "-//W3C//DTD SVG 1.1//EN" "http://www.w3.org/Graphics/SVG/1.1/DTD/svg11.dtd">
<svg version="1.1" id="Layer_1" xmlns="http://www.w3.org/2000/svg" xmlns:xlink="http://www.w3.org/1999/xlink" x="0px" y="0px"
	 width="89.667px" height="86.667px" viewBox="0 0 89.667 86.667" enable-background="new 0 0 89.667 86.667" xml:space="preserve">
<path fill="#B8D432" d="M64.402,76.36c0,5.606-3.744,10.153-8.363,10.153H8.364C3.745,86.514,0,81.968,0,76.36V18.488
	C0,12.88,3.745,8.334,8.364,8.334h47.674c4.619,0,8.363,4.546,8.363,10.154V76.36z"/>
<path fill="#7FBA00" d="M0,73.25v3.11c0,5.606,3.745,10.153,8.364,10.153h47.674c4.619,0,8.363-4.547,8.363-10.153V20.85L0,73.25z"
	/>
<rect x="20.891" y="19.166" fill="#FFFFFF" width="22.621" height="2.513"/>
<rect x="8.952" y="28.34" fill="#FFFFFF" width="46.499" height="2.513"/>
<rect x="8.952" y="37.514" fill="#FFFFFF" width="46.499" height="2.513"/>
<rect x="8.952" y="46.687" fill="#FFFFFF" width="46.499" height="2.514"/>
<rect x="8.952" y="55.861" fill="#FFFFFF" width="46.499" height="2.514"/>
<rect x="8.952" y="65.035" fill="#FFFFFF" width="46.499" height="2.514"/>
<circle fill="#E5E5E5" cx="61.673" cy="27.7" r="27.7"/>
<path fill="#A0A1A2" d="M41.874,46.987c5.043,5.285,12.152,8.584,20.036,8.584c15.299,0,27.7-12.402,27.7-27.701
	c0-5.845-1.813-11.263-4.905-15.732L41.874,46.987z"/>
<path fill="#804998" d="M74.814,27.488c-2.091-0.105-4.389-2.511-4.398-4.59c-0.008-2.967,0-5.932,0-8.9
	c-0.006-3.189-3.184-6.757-6.358-7.08C63.88,6.9,63.619,6.837,63.394,6.837v2.585c0.076,0.028,0.137,0.061,0.229,0.083
	c2.508,0.579,4.211,2.8,4.207,5.381c-0.002,2.664,0.041,5.333-0.037,7.996c-0.043,1.554,0.474,2.864,1.388,4.047
	c0.469,0.605,1.026,1.146,1.596,1.776c-2.077,1.425-2.896,3.436-2.937,5.787c-0.045,2.669-0.008,5.329-0.01,7.998
	c0,1.938-1.717,4.588-3.623,4.969c-0.363,0.067-0.625,0.17-0.813,0.303v2.496c0.122,0.016,0.267,0.016,0.435-0.004
	c3.602-0.391,6.563-3.646,6.582-7.284c0.018-2.665,0.006-5.329,0.006-7.993c0-2.85,1.59-4.792,4.201-5.241h1.777v-2.246
	L74.814,27.488L74.814,27.488z"/>
<path fill="#804998" d="M59.641,47.648c-2.488-0.576-4.207-2.836-4.201-5.388c0.009-2.659-0.039-5.329,0.037-7.993
	c0.049-1.605-0.502-2.942-1.461-4.146c-0.449-0.572-0.979-1.079-1.521-1.665c2.09-1.439,2.902-3.442,2.938-5.799
	c0.032-2.623,0.006-5.243,0.008-7.866c0.004-2.036,1.685-4.708,3.638-5.085c0.229-0.045,0.405-0.109,0.563-0.177V6.903
	c-0.068,0.003-0.127,0.002-0.201,0.01c-3.643,0.407-6.563,3.625-6.582,7.29c-0.018,2.664,0,5.328-0.004,7.992
	c-0.008,2.743-1.457,4.626-3.891,5.173h-2.086v2.366h2.168c1.912,0.464,3.801,2.64,3.809,4.528c0.01,2.972,0,5.939,0.003,8.9
	c0.001,3.187,3.192,6.759,6.37,7.076c0.111,0.014,0.258,0.038,0.414,0.063L59.641,47.648L59.641,47.648z"/>
<path fill="#68217A" d="M55.361,42.261c0.006-2.061-0.02-4.126,0.004-6.191l-2.588,2.104c0,1.664-0.002,3.328-0.001,4.989
	c0.003,3.187,3.194,6.758,6.37,7.076c0.113,0.015,0.26,0.038,0.416,0.063v-2.654C57.074,47.072,55.354,44.813,55.361,42.261z"/>
<path fill="#68217A" d="M70.498,23.864l-2.192,1.785c0.216,0.444,0.479,0.87,0.797,1.279c0.469,0.605,1.024,1.146,1.597,1.776
	c-2.078,1.425-2.896,3.436-2.936,5.787c-0.047,2.669-0.01,5.329-0.014,7.998c0,1.938-1.715,4.587-3.623,4.968
	c-0.363,0.068-0.623,0.17-0.812,0.304v2.497c0.121,0.015,0.265,0.015,0.435-0.006c3.601-0.39,6.563-3.645,6.582-7.284
	c0.019-2.665,0.006-5.329,0.006-7.993c0-2.85,1.59-4.792,4.199-5.241h1.779v-2.246h-1.581
	C72.964,27.399,71.048,25.658,70.498,23.864z"/>
</svg>
