<?xml version="1.0" encoding="utf-8"?>
<!-- Generator: Adobe Illustrator 16.0.0, SVG Export Plug-In . SVG Version: 6.00 Build 0)  -->
<!DOCTYPE svg PUBLIC "-//W3C//DTD SVG 1.1//EN" "http://www.w3.org/Graphics/SVG/1.1/DTD/svg11.dtd">
<svg version="1.1" id="Layer_1" xmlns="http://www.w3.org/2000/svg" xmlns:xlink="http://www.w3.org/1999/xlink" x="0px" y="0px"
	 width="78.678px" height="54.401px" viewBox="0 0 78.678 54.401" enable-background="new 0 0 78.678 54.401" xml:space="preserve">
<g>
	<polygon fill="#3999C6" points="13.646,50.317 39.338,23.253 46.909,37.625 55.651,29.173 67.773,50.035 	"/>
	<g>
		<path fill="#0072C6" d="M66.833,0.637H11.844c-6.228,0-11.277,5.05-11.277,11.276v30.447c0,6.228,5.05,11.276,11.277,11.276
			h54.989c6.228,0,11.277-5.049,11.277-11.276V11.914C78.11,5.687,73.061,0.637,66.833,0.637z M73.077,38.219
			c0,5.6-4.54,10.14-10.141,10.14H15.74c-5.601,0-10.141-4.54-10.141-10.14V16.058c0-5.6,4.54-10.142,10.141-10.142h47.196
			c5.601,0,10.141,4.542,10.141,10.142V38.219z"/>
	</g>
	<circle fill="#7FBA00" cx="19.562" cy="19.755" r="7"/>
	<polygon fill="#FF8C00" points="67.19,30.967 57.043,20.749 46.895,30.967 46.895,0.637 67.19,0.637 	"/>
</g>
</svg>
