<?xml version="1.0" encoding="utf-8" ?>
<!-- Generator: Adobe Illustrator 16.0.0, SVG Export Plug-In . SVG Version: 6.00 Build 0)  -->
<!DOCTYPE svg PUBLIC "-//W3C//DTD SVG 1.1//EN" "http://www.w3.org/Graphics/SVG/1.1/DTD/svg11.dtd">
<svg version="1.1" id="Layer_1" xmlns="http://www.w3.org/2000/svg" xmlns:xlink="http://www.w3.org/1999/xlink" x="0px" y="0px"
     width="100px" height="100px" viewBox="0 0 100 100" enable-background="new 0 0 100 100" xml:space="preserve">
<g>
<path fill="#A0A1A2" d="M87.438,84.447l-4.086-4.084c4.272-5.664,6.98-12.287,7.899-19.332l5.827,0.006
		c1.451-0.006,2.14-1.73,2.136-3.178v-5.234c0-1.445-0.688-3.17-2.135-3.173l-5.932,0.001c-1.037-6.95-3.823-13.469-8.141-19.033
		l4.418-4.411c1.022-1.029,0.318-2.765-0.705-3.788l-3.702-3.702c-1.021-1.021-2.764-1.719-3.788-0.697l-4.517,4.52
		c-5.575-4.092-12.048-6.688-18.923-7.58V8.164c-0.004-1.451-1.734-2.135-3.172-2.135h-5.234c-1.445,0-3.176,0.682-3.18,2.135
		l0.003,6.711c-6.752,1.013-13.097,3.677-18.553,7.793l-4.821-4.825c-1.025-1.024-2.704-0.25-3.723,0.768l-3.701,3.702
		c-1.018,1.017-1.79,2.693-0.765,3.723l4.821,4.818c-4.129,5.468-6.803,11.829-7.813,18.6l-6.736-0.001
		c-1.449,0-2.135,1.736-2.132,3.175l0,5.234c0,1.438,0.683,3.17,2.136,3.172H9.55c0.896,6.865,3.49,13.326,7.577,18.896
		l-4.502,4.498c-1.025,1.023-0.268,2.721,0.75,3.738l3.703,3.703c1.017,1.018,2.71,1.771,3.739,0.746l4.391-4.393
		c2.768,2.145,5.787,3.924,9.025,5.305c1.623,0.693,3.497-0.061,4.19-1.684c0.691-1.621-0.062-3.498-1.684-4.188
		c-4.097-1.752-7.785-4.248-10.961-7.422C12.206,66.66,12.207,44.574,25.781,31c13.577-13.576,35.664-13.578,49.235-0.006
		c13.579,13.578,13.58,35.668,0.004,49.245c-3.279,3.281-7.106,5.834-11.37,7.588c-1.631,0.672-2.408,2.537-1.738,4.168
		c0.67,1.627,2.535,2.406,4.166,1.738c3.259-1.342,6.299-3.076,9.088-5.18l4.088,4.096c1.029,1.02,2.781,0.33,3.804-0.691
		l3.701-3.703C87.778,87.232,88.461,85.473,87.438,84.447L87.438,84.447z M87.438,84.447" />
</g>
<g>
<path fill="#3999C6" d="M32.618,73.496c0-6.725,4.023-12.535,9.853-15.271c2.153,1.389,4.729,2.193,7.502,2.193
		c2.782,0,5.369-0.813,7.524-2.207c5.848,2.729,9.885,8.549,9.885,15.285C67.382,80.512,32.618,80.609,32.618,73.496L32.618,73.496z
		 M58.236,55.191c-1.082,1.057-2.378,1.898-3.792,2.471c-1.413,0.568-2.941,0.865-4.471,0.865c-1.529,0-3.059-0.297-4.471-0.865
		c-1.414-0.572-2.709-1.414-3.791-2.471c-1.083-1.053-1.949-2.316-2.535-3.693c-0.584-1.377-0.889-2.868-0.889-4.357
		c0-1.492,0.305-2.981,0.889-4.359c0.586-1.375,1.452-2.639,2.535-3.693c1.081-1.055,2.376-1.899,3.791-2.468
		c1.412-0.57,2.942-0.867,4.471-0.867c1.53,0,3.058,0.297,4.471,0.867c1.414,0.569,2.71,1.414,3.792,2.468
		c1.08,1.055,1.945,2.318,2.533,3.693c0.583,1.377,0.888,2.867,0.888,4.359c0,1.489-0.305,2.979-0.888,4.357
		C60.182,52.875,59.316,54.139,58.236,55.191L58.236,55.191z M58.236,55.191" />
</g>
</svg>