<?xml version="1.0" encoding="utf-8"?>
<!-- Generator: Adobe Illustrator 16.0.0, SVG Export Plug-In . SVG Version: 6.00 Build 0)  -->
<!DOCTYPE svg PUBLIC "-//W3C//DTD SVG 1.1//EN" "http://www.w3.org/Graphics/SVG/1.1/DTD/svg11.dtd">
<svg version="1.1" id="Layer_1" xmlns="http://www.w3.org/2000/svg" xmlns:xlink="http://www.w3.org/1999/xlink" x="0px" y="0px"
	 width="100px" height="88.667px" viewBox="0 4.833 100 88.667" enable-background="new 0 4.833 100 88.667" xml:space="preserve">
<g id="Ellipse_2_94_">
	<g>
		<path fill="#59B4D9" d="M71.198,5.233c-15.924,0-28.832,12.903-28.832,28.826s12.908,28.83,28.832,28.83
			c15.919,0,28.825-12.907,28.825-28.83C100.023,18.139,87.113,5.233,71.198,5.233z M78.234,21.99c2.035,0,3.69,1.652,3.69,3.69
			c0,2.036-1.653,3.689-3.69,3.689c-2.034,0-3.688-1.652-3.688-3.689S76.2,21.99,78.234,21.99z M62.817,21.99
			c2.03,0,3.686,1.652,3.686,3.69c0,2.036-1.651,3.689-3.686,3.689c-2.035,0-3.689-1.652-3.689-3.689S60.782,21.99,62.817,21.99z
			 M71.662,52.661c-15.94,0-20.021-16.815-20.021-16.815h3.204c0,0,3.787,13.614,16.816,13.614c11.308,0,15.21-13.614,15.21-13.614
			h3.202C90.077,35.847,86.856,52.661,71.662,52.661z"/>
	</g>
</g>
<g>
	<g>
		<defs>
			<polyline id="SVGID_1_" points="98.409,6.024 40.056,64.38 109.851,64.38 			"/>
		</defs>
		<clipPath id="SVGID_2_">
			<use xlink:href="#SVGID_1_"  overflow="visible"/>
		</clipPath>
		<g id="Ellipse_2_92_" clip-path="url(#SVGID_2_)">
			<g>
				<path fill="#3999C6" d="M71.143,5.291c-15.924,0-28.833,12.903-28.833,28.826c0,15.924,12.909,28.829,28.833,28.829
					c15.918,0,28.825-12.905,28.825-28.829C99.968,18.194,87.058,5.291,71.143,5.291z M78.179,22.048c2.035,0,3.69,1.651,3.69,3.69
					c0,2.036-1.652,3.689-3.69,3.689c-2.035,0-3.689-1.651-3.689-3.689C74.489,23.699,76.144,22.048,78.179,22.048z M62.76,22.048
					c2.032,0,3.687,1.651,3.687,3.69c0,2.036-1.652,3.689-3.687,3.689s-3.688-1.651-3.688-3.689
					C59.072,23.699,60.726,22.048,62.76,22.048z M71.606,52.719c-15.941,0-20.021-16.815-20.021-16.815h3.204
					c0,0,3.788,13.615,16.817,13.615c11.307,0,15.21-13.615,15.21-13.615h3.202C90.021,35.903,86.801,52.719,71.606,52.719z"/>
			</g>
		</g>
	</g>
</g>
<g>
	<g>
		<path fill="#FF8C00" d="M79.52,87.813c-6.133,0-11.314-4.602-12.048-10.7c-0.803-6.659,3.96-12.728,10.618-13.534
			c6.762-0.801,12.732,4.04,13.527,10.624c0.393,3.222-0.501,6.404-2.505,8.957c-2.006,2.554-4.894,4.176-8.115,4.564
			C80.504,87.787,80.011,87.813,79.52,87.813z M79.554,66.343c-0.37,0-0.745,0.024-1.124,0.072
			c-5.098,0.611-8.739,5.259-8.13,10.354c0.608,5.045,5.165,8.759,10.356,8.129c2.471-0.295,4.678-1.536,6.214-3.492
			c1.534-1.956,2.214-4.393,1.917-6.864C88.222,69.867,84.259,66.343,79.554,66.343z"/>
	</g>
	
		<rect x="92.238" y="79.473" transform="matrix(-0.6595 0.7517 -0.7517 -0.6595 220.8647 74.7204)" fill="#FF8C00" width="2.541" height="15.822"/>
</g>
<circle fill="#FFFFFF" cx="34.849" cy="57.571" r="26.317"/>
<g id="Ellipse_2_22_">
	<g>
		<path fill="#3999C6" d="M34.983,22.75c-18.922,0-34.26,15.334-34.26,34.25c0,18.921,15.337,34.258,34.26,34.258
			c18.913,0,34.253-15.337,34.253-34.258C69.236,38.084,53.896,22.75,34.983,22.75z M43.345,42.662c2.418,0,4.381,1.963,4.381,4.385
			c0,2.42-1.965,4.383-4.381,4.383c-2.42,0-4.383-1.964-4.383-4.383C38.962,44.622,40.926,42.662,43.345,42.662z M25.022,42.662
			c2.417,0,4.379,1.963,4.379,4.385c0,2.42-1.964,4.383-4.379,4.383c-2.418,0-4.383-1.964-4.383-4.383
			C20.639,44.622,22.604,42.662,25.022,42.662z M35.536,79.107c-18.944,0-23.792-19.982-23.792-19.982h3.806
			c0,0,4.501,16.179,19.986,16.179c13.437,0,18.074-16.179,18.074-16.179h3.804C57.414,59.125,53.588,79.107,35.536,79.107z"/>
	</g>
</g>
<g>
	<g>
		<defs>
			<polygon id="SVGID_3_" points="76.516,14.92 -5.083,96.519 87.505,98.99 			"/>
		</defs>
		<clipPath id="SVGID_4_">
			<use xlink:href="#SVGID_3_"  overflow="visible"/>
		</clipPath>
		<g id="Ellipse_2_19_" clip-path="url(#SVGID_4_)">
			<g>
				<path fill="#0072C6" d="M35.073,22.681c-18.921,0-34.26,15.335-34.26,34.251c0,18.92,15.339,34.257,34.26,34.257
					c18.914,0,34.254-15.337,34.254-34.257C69.327,38.016,53.987,22.681,35.073,22.681z M43.435,42.592
					c2.42,0,4.382,1.964,4.382,4.384c0,2.421-1.963,4.383-4.382,4.383c-2.416,0-4.38-1.962-4.38-4.383
					C39.055,44.556,41.019,42.592,43.435,42.592z M25.113,42.592c2.416,0,4.38,1.964,4.38,4.384c0,2.421-1.965,4.383-4.38,4.383
					c-2.419,0-4.383-1.962-4.383-4.383C20.73,44.556,22.694,42.592,25.113,42.592z M35.626,79.038
					c-18.942,0-23.79-19.981-23.79-19.981h3.804c0,0,4.503,16.18,19.986,16.18c13.438,0,18.074-16.18,18.074-16.18h3.806
					C57.508,59.057,53.681,79.038,35.626,79.038z"/>
			</g>
		</g>
	</g>
</g>
</svg>
