<?xml version="1.0" encoding="utf-8"?>
<!-- Generator: Adobe Illustrator 16.0.0, SVG Export Plug-In . SVG Version: 6.00 Build 0)  -->
<!DOCTYPE svg PUBLIC "-//W3C//DTD SVG 1.1//EN" "http://www.w3.org/Graphics/SVG/1.1/DTD/svg11.dtd">
<svg version="1.1" id="Layer_1" xmlns="http://www.w3.org/2000/svg" xmlns:xlink="http://www.w3.org/1999/xlink" x="0px" y="0px"
	 width="100px" height="78.333px" viewBox="0 0 100 78.333" enable-background="new 0 0 100 78.333" xml:space="preserve">
<rect x="36.738" y="12.777" fill="#A0A1A2" width="63.262" height="64.228"/>
<circle fill="#FFFFFF" cx="17.216" cy="23.478" r="3.766"/>
<circle fill="#FFFFFF" cx="29.484" cy="23.478" r="3.766"/>
<circle fill="#E5E5E5" cx="41.753" cy="23.478" r="3.766"/>
<path fill="#59B4D9" d="M33.927,70.668l-8.164-7.429v3.903c-5.111-0.645-12.478-3.714-18.839-14.607c0,0,0.947,17.92,18.839,20.977
	v4.585L33.927,70.668z"/>
<polygon fill="#7A7A7A" points="36.738,73.345 36.738,77.325 100,77.325 100,21.872 "/>
<g>
	<rect x="45.97" y="44.09" fill="#FFFFFF" width="44.8" height="2.168"/>
	<rect x="45.97" y="36.142" fill="#FFFFFF" width="44.8" height="2.167"/>
	<rect x="45.97" y="52.038" fill="#FFFFFF" width="44.8" height="2.168"/>
	<rect x="45.97" y="59.986" fill="#FFFFFF" width="37.491" height="2.167"/>
	<rect x="45.97" y="28.194" fill="#FFFFFF" width="18.707" height="2.167"/>
</g>
<path fill="#FF8C00" d="M30.434,0.008C13.882-0.323,0.259,9.88,0.004,22.788c-0.087,4.483,1.454,8.71,4.193,12.327l0,0
	C8.91,41.17,3.765,51.579,3.765,51.579l15.193-6.539c3.273,1.031,6.828,1.639,10.557,1.709c16.55,0.326,30.172-9.871,30.426-22.779
	C60.198,11.058,46.986,0.333,30.434,0.008z M17.16,27.09c-2.04,0-3.692-1.653-3.692-3.693c0-2.039,1.652-3.691,3.692-3.691
	s3.693,1.653,3.693,3.691C20.853,25.438,19.2,27.09,17.16,27.09z M29.469,27.09c-2.041,0-3.693-1.653-3.693-3.693
	c0-2.039,1.652-3.691,3.693-3.691c2.038,0,3.69,1.653,3.69,3.691C33.159,25.438,31.507,27.09,29.469,27.09z M41.775,27.09
	c-2.04,0-3.694-1.653-3.694-3.693c0-2.039,1.654-3.691,3.694-3.691s3.692,1.653,3.692,3.691
	C45.467,25.438,43.815,27.09,41.775,27.09z"/>
<path fill="#DD5900" d="M41.703,19.678c2.029,0.019,3.667,1.667,3.667,3.7c0,2.045-1.658,3.704-3.704,3.704
	s-3.706-1.658-3.706-3.704c0-0.245,0.027-0.483,0.072-0.714L4.145,50.236c-0.35,0.884-0.61,1.414-0.61,1.414l15.242-6.562
	c3.284,1.035,6.851,1.643,10.59,1.716c16.604,0.327,30.27-9.903,30.525-22.854c0.104-5.335-2.084-10.295-5.854-14.309L41.703,19.678
	z"/>
</svg>
