<?xml version="1.0" encoding="utf-8"?>
<!-- Generator: Adobe Illustrator 16.0.0, SVG Export Plug-In . SVG Version: 6.00 Build 0)  -->
<!DOCTYPE svg PUBLIC "-//W3C//DTD SVG 1.1//EN" "http://www.w3.org/Graphics/SVG/1.1/DTD/svg11.dtd">
<svg version="1.1" id="Layer_1" xmlns="http://www.w3.org/2000/svg" xmlns:xlink="http://www.w3.org/1999/xlink" x="0px" y="0px"
	 width="100px" height="81.333px" viewBox="0 0 100 81.333" enable-background="new 0 0 100 81.333" xml:space="preserve">
<path fill="#59B4D9" d="M33.892,68.525l-7.717-7.021v3.69c-4.831-0.61-11.794-3.512-17.807-13.81c0,0,0.895,16.938,17.807,19.826
	v4.336L33.892,68.525z"/>
<rect x="35.292" y="15.262" fill="#A0A1A2" width="64.841" height="65.83"/>
<polygon fill="#7A7A7A" points="35.292,77.343 35.292,81.42 100.133,81.42 100.133,24.584 "/>
<circle fill="#FFFFFF" cx="58.284" cy="40.397" r="5.929"/>
<rect x="72.172" y="53.368" fill="#E5E5E5" width="11.754" height="11.754"/>
<rect x="52.983" y="53.936" transform="matrix(-0.7071 0.7071 -0.7071 -0.7071 141.3977 59.9175)" fill="#FFFFFF" width="10.614" height="10.614"/>
<g>
	<rect x="72.172" y="39.369" fill="#FFFFFF" width="11.857" height="2.053"/>
	<rect x="77.074" y="34.469" fill="#FFFFFF" width="2.051" height="11.857"/>
</g>
<circle fill="#FFFFFF" cx="17.239" cy="23.51" r="3.771"/>
<circle fill="#FFFFFF" cx="29.523" cy="23.51" r="3.771"/>
<circle fill="#E5E5E5" cx="41.808" cy="23.51" r="3.771"/>
<path fill="#FF8C00" d="M30.474,0.008C13.9-0.323,0.259,9.894,0.003,22.819c-0.087,4.489,1.456,8.721,4.199,12.343l0,0
	c4.72,6.064-0.432,16.485-0.432,16.485L18.983,45.1c3.278,1.033,6.837,1.64,10.571,1.712C46.126,47.137,59.768,36.928,60.021,24
	C60.279,11.073,47.049,0.333,30.474,0.008z M17.183,27.127c-2.042,0-3.697-1.655-3.697-3.698c0-2.041,1.654-3.696,3.697-3.696
	s3.698,1.655,3.698,3.696C20.88,25.472,19.226,27.127,17.183,27.127z M29.508,27.127c-2.044,0-3.698-1.655-3.698-3.698
	c0-2.041,1.654-3.696,3.698-3.696c2.041,0,3.695,1.655,3.695,3.696C33.203,25.472,31.548,27.127,29.508,27.127z M41.831,27.127
	c-2.042,0-3.698-1.655-3.698-3.698c0-2.041,1.656-3.696,3.698-3.696s3.697,1.655,3.697,3.696
	C45.527,25.472,43.873,27.127,41.831,27.127z"/>
<path fill="#DD5900" d="M41.758,19.705c2.031,0.02,3.672,1.669,3.672,3.705c0,2.048-1.66,3.708-3.708,3.708
	c-2.049,0-3.71-1.66-3.71-3.708c0-0.246,0.027-0.484,0.072-0.715L4.149,50.304c-0.351,0.886-0.611,1.415-0.611,1.415l15.263-6.569
	c3.288,1.036,6.859,1.646,10.604,1.718c16.625,0.327,30.312-9.916,30.565-22.884c0.107-5.342-2.086-10.309-5.858-14.329
	L41.758,19.705z"/>
<polygon fill="#E5E5E5" points="62.119,55.534 53.803,62.299 58.254,66.749 65.793,59.209 "/>
</svg>
