<?xml version="1.0" encoding="utf-8"?>
<!-- Generator: Adobe Illustrator 16.0.0, SVG Export Plug-In . SVG Version: 6.00 Build 0)  -->
<!DOCTYPE svg PUBLIC "-//W3C//DTD SVG 1.1//EN" "http://www.w3.org/Graphics/SVG/1.1/DTD/svg11.dtd">
<svg version="1.1" id="Layer_1" xmlns="http://www.w3.org/2000/svg" xmlns:xlink="http://www.w3.org/1999/xlink" x="0px" y="0px"
	 width="100px" height="97.667px" viewBox="0 0 100 97.667" enable-background="new 0 0 100 97.667" xml:space="preserve">
<path fill="#804998" d="M44.93,0C20.113,0,0,20.115,0,44.917c0,24.809,20.113,44.931,44.93,44.931
	c24.806,0,44.921-20.122,44.921-44.931C89.854,20.115,69.736,0,44.93,0z M44.92,82.101c-20.534,0-37.174-16.643-37.174-37.165
	c0-20.543,16.64-37.185,37.174-37.185c20.535,0,37.174,16.642,37.174,37.185C82.094,65.458,65.455,82.101,44.92,82.101z"/>
<path fill="#68217A" d="M79.8,32.169c1.459,3.987,2.294,8.274,2.294,12.767c0,20.522-16.639,37.165-37.174,37.165
	c-7.165,0-13.834-2.063-19.51-5.574l-6.306,5.145c7.306,5.145,16.209,8.178,25.826,8.178c24.806,0,44.921-20.122,44.921-44.931
	c0-6.367-1.336-12.42-3.726-17.909L79.8,32.169z"/>
<path fill="#67217A" d="M72.87,54.654c-1.302,0.77-2.849,1.157-4.638,1.157c-2.416,0-4.366-0.772-5.852-2.321
	c-1.484-1.552-2.229-3.558-2.229-6.028c0-2.751,0.801-4.961,2.402-6.626c1.604-1.671,3.737-2.505,6.408-2.505
	c1.489,0,2.805,0.27,3.939,0.814v2.74c-1.26-0.869-2.604-1.307-4.041-1.307c-1.729,0-3.151,0.613-4.264,1.837
	c-1.109,1.223-1.662,2.832-1.662,4.82c0,1.955,0.521,3.5,1.563,4.629c1.043,1.134,2.44,1.7,4.194,1.7
	c1.479,0,2.873-0.486,4.174-1.451v2.541H72.87z"/>
<path fill="#68217A" d="M72.905,54.654c-1.3,0.77-2.849,1.157-4.636,1.157c-2.418,0-4.369-0.772-5.853-2.321
	c-1.483-1.552-2.226-3.558-2.226-6.028c0-2.751,0.799-4.961,2.397-6.626c1.603-1.671,3.738-2.505,6.409-2.505
	c1.49,0,2.807,0.27,3.941,0.814v2.74c-1.264-0.869-2.604-1.307-4.043-1.307c-1.729,0-3.151,0.613-4.265,1.837
	c-1.108,1.223-1.662,2.832-1.662,4.82c0,1.955,0.522,3.5,1.564,4.629c1.045,1.134,2.442,1.7,4.196,1.7
	c1.479,0,2.873-0.486,4.172-1.451v2.541H72.905z"/>
<path fill="#804998" d="M41.48,32.375v23.058h2.623v-2.092c1.12,1.645,2.663,2.47,4.633,2.47c1.978,0,3.673-0.78,5.088-2.345
	c1.412-1.56,2.115-3.772,2.115-6.635c0-1.208-0.166-2.337-0.5-3.4c-0.334-1.057-0.799-1.963-1.391-2.71
	c-0.59-0.751-1.345-1.333-2.26-1.746c-0.916-0.416-1.888-0.622-2.914-0.622c-1.853,0-3.376,0.748-4.571,2.247v-8.226L41.48,32.375
	L41.48,32.375z M45.423,42.292c0.899-1.074,1.966-1.61,3.203-1.61c1.225,0,2.269,0.521,3.132,1.556
	c0.864,1.037,1.295,2.648,1.295,4.829c0,2.132-0.449,3.728-1.351,4.806c-0.9,1.073-1.967,1.611-3.204,1.611
	c-1.517,0-2.722-0.729-3.612-2.186c-0.544-0.891-0.815-2.341-0.815-4.341C44.071,44.92,44.521,43.37,45.423,42.292z"/>
<path fill="#804998" d="M19.53,48.376h10.252l2.86,7.436h3.697L26.303,31.253H22.81l-9.419,24.559h3.448L19.53,48.376z
	 M23.16,38.524c0.568-1.551,1.008-3.115,1.321-4.689c0.379,1.329,0.959,3.026,1.741,5.092l2.558,6.801h-8.313L23.16,38.524z"/>
<path fill="#68217A" d="M54.014,40.722c-0.591-0.751-1.346-1.333-2.263-1.746c-0.915-0.416-1.886-0.622-2.912-0.622
	c-1.854,0-3.376,0.748-4.571,2.247v-4.726l-2.825,2.299v17.26h2.622v-2.093c1.121,1.646,2.664,2.471,4.634,2.471
	c1.976,0,3.673-0.779,5.087-2.344c1.413-1.561,2.118-3.773,2.118-6.636c0-1.208-0.168-2.337-0.502-3.4
	C55.066,42.375,54.604,41.469,54.014,40.722z M51.666,51.873c-0.902,1.073-1.97,1.611-3.204,1.611c-1.517,0-2.721-0.729-3.612-2.186
	c-0.544-0.891-0.816-2.341-0.816-4.341c0-2.038,0.45-3.588,1.351-4.666c0.901-1.074,1.968-1.61,3.203-1.61
	c1.226,0,2.271,0.521,3.135,1.556c0.862,1.037,1.293,2.648,1.293,4.829C53.016,49.199,52.566,50.794,51.666,51.873z"/>
<polygon fill="#68217A" points="29.264,48.376 29.746,48.376 32.606,55.812 36.303,55.812 32.267,45.934 "/>
<rect x="80.634" y="65.885" transform="matrix(-0.707 0.7072 -0.7072 -0.707 203.4334 81.2011)" fill="#67217A" width="8.526" height="33.706"/>
</svg>
