<svg id="Layer_1" data-name="Layer 1" xmlns="http://www.w3.org/2000/svg" viewBox="0 0 95 95">
    <title>TextAnalytics_updated</title>
    <rect width="95" height="95" style="fill:#019681"/>
    <path d="M71.22,41.1c0-10.13-9.65-18.35-21.56-18.35S28.1,31,28.1,41.1c0,7.5,5.29,13.9,12.9,16.79a13.8,13.8,0,0,1-4.15,3.32C33.51,63,29.59,63.94,26,65.3c-0.6.23-1.54,0.57-1.6,0.95a46.21,46.21,0,0,0-.4,5.21,8,8,0,0,0,.87.24,43.1,43.1,0,0,0,27.94-5C61.52,62,71.22,54.27,71.22,41.1Z" style="fill:#fff"/>
    <path d="M49.76,28.86c-7.85,0-14.3,5.3-14.4,11.92s6.22,12.29,14.09,12.34S63.83,47.74,63.85,41,57.55,28.91,49.76,28.86Z" style="fill:#414142"/>
    <path d="M52.42,37.15V34.51h0.84V32.78H45.94v1.73h0.84v2.64L42.45,45.8,43.76,48h11.7l1.3-2.17ZM49,39.28L45.53,46.2H44.69l-0.46-.44,4.33-8.22v-3h2.12v3l0.84,1.73H49Z" style="fill:#fff"/>
</svg>