<?xml version="1.0" encoding="utf-8"?>
<!-- Generator: Adobe Illustrator 16.0.0, SVG Export Plug-In . SVG Version: 6.00 Build 0)  -->
<!DOCTYPE svg PUBLIC "-//W3C//DTD SVG 1.1//EN" "http://www.w3.org/Graphics/SVG/1.1/DTD/svg11.dtd">
<svg version="1.1" id="Layer_1" xmlns="http://www.w3.org/2000/svg" xmlns:xlink="http://www.w3.org/1999/xlink" x="0px" y="0px"
	 width="45px" height="45px" viewBox="0 0 45 45" enable-background="new 0 0 45 45" xml:space="preserve">
<rect x="-0.053" y="0" fill="#59B4D9" width="45" height="45"/>
<path fill="#FFFFFF" d="M40.375,30.033l-4.184-3.963l-0.004,0.006l-0.898-0.852c0.625-0.795,0.998-1.797,0.998-2.883
	c0-2.396-1.814-4.376-4.145-4.648v-2.633c0-0.645-0.52-1.17-1.158-1.17H7.283c-0.637,0-1.156,0.525-1.156,1.17v14.762
	c0,0.645,0.52,1.17,1.156,1.17h23.702c0.639,0,1.158-0.525,1.158-1.17v-2.836c0.82-0.096,1.576-0.4,2.213-0.863l3.725,3.529
	l0.014,0.002l1.342,1.271l1.127,0.182L40.375,30.033z M7.338,29.766V15.116H30.93v2.592c-2.275,0.323-4.031,2.277-4.031,4.633
	c0,2.356,1.756,4.311,4.031,4.633v2.791H7.338z M31.594,26.19c-2.129,0-3.861-1.728-3.861-3.849c0-2.123,1.732-3.849,3.861-3.849
	s3.861,1.726,3.861,3.849C35.455,24.463,33.723,26.19,31.594,26.19z"/>
<g>
	<polygon fill-rule="evenodd" clip-rule="evenodd" fill="#FFFFFF" points="16.074,19.368 16.074,25.649 21.955,22.408 	"/>
	<path fill="#FFFFFF" d="M16.074,26.142c-0.086,0-0.173-0.023-0.25-0.068c-0.15-0.089-0.242-0.25-0.242-0.424v-6.281
		c0-0.172,0.09-0.33,0.236-0.42c0.146-0.089,0.329-0.096,0.481-0.017l5.881,3.041c0.162,0.083,0.263,0.249,0.267,0.43
		c0.001,0.182-0.096,0.35-0.256,0.438l-5.879,3.24C16.237,26.121,16.155,26.142,16.074,26.142z M16.565,20.176v4.641l4.345-2.394
		L16.565,20.176z"/>
</g>
</svg>
