<?xml version="1.0" encoding="utf-8"?>
<!-- Generator: Adobe Illustrator 16.0.0, SVG Export Plug-In . SVG Version: 6.00 Build 0)  -->
<!DOCTYPE svg PUBLIC "-//W3C//DTD SVG 1.1//EN" "http://www.w3.org/Graphics/SVG/1.1/DTD/svg11.dtd">
<svg version="1.1" id="Layer_1" xmlns="http://www.w3.org/2000/svg" xmlns:xlink="http://www.w3.org/1999/xlink" x="0px" y="0px"
	 width="100px" height="68.833px" viewBox="0 0 100 68.833" enable-background="new 0 0 100 68.833" xml:space="preserve">
<g>
	<g id="Ellipse_2_5_">
		<g>
			<polygon fill="#804998" points="82.979,26.8 80.023,29.755 97.156,46.754 99.977,46.754 99.977,43.941 			"/>
		</g>
	</g>
	<path fill="#804998" d="M70.396,0.199c-9.39,0-16.998,7.611-16.998,16.995c0,9.386,7.608,16.999,16.998,16.999
		c9.387,0,16.996-7.613,16.996-16.999C87.395,7.81,79.783,0.199,70.396,0.199z M70.395,31.262c-7.77,0-14.065-6.296-14.065-14.061
		c0-7.772,6.297-14.069,14.065-14.069c7.77,0,14.064,6.297,14.064,14.069C84.459,24.965,78.163,31.262,70.395,31.262z"/>
</g>
<g>
	<path fill="#3999C6" d="M72.775,37.518v21.967L61.58,40.822L48.891,51.398l-9.704-16.174L5.598,63.215V18.43h44.57
		c0.149-1.97,0.607-3.853,1.333-5.598H0v55.981h78.375V35.056C76.684,36.17,74.796,37.013,72.775,37.518z"/>
	<circle fill="#3999C6" cx="19.594" cy="32.425" r="8.397"/>
</g>
<path fill="#0072C6" d="M72.698,59.485L61.502,40.822L48.813,51.398l-4.023-6.706L16.496,68.813h61.801V35.056
	c-1.689,1.114-3.578,1.958-5.599,2.462V59.485z"/>
<g>
	<g id="Ellipse_2_3_">
		<g>
			<polygon fill="#68217A" points="82.979,26.8 80.023,29.755 97.156,46.754 99.977,46.754 99.977,43.941 			"/>
		</g>
	</g>
	<path fill="#68217A" d="M83.591,12.371c0.552,1.508,0.868,3.13,0.868,4.83c0,7.765-6.296,14.061-14.064,14.061
		c-2.711,0-5.234-0.78-7.383-2.109l-2.387,1.946c2.766,1.946,6.134,3.093,9.771,3.093c9.387,0,16.996-7.613,16.996-16.999
		c0-2.409-0.504-4.7-1.408-6.776L83.591,12.371z"/>
</g>
</svg>
