<?xml version="1.0" encoding="utf-8"?>
<!-- Generator: Adobe Illustrator 16.0.0, SVG Export Plug-In . SVG Version: 6.00 Build 0)  -->
<!DOCTYPE svg PUBLIC "-//W3C//DTD SVG 1.1//EN" "http://www.w3.org/Graphics/SVG/1.1/DTD/svg11.dtd">
<svg version="1.1" id="Layer_1" xmlns="http://www.w3.org/2000/svg" xmlns:xlink="http://www.w3.org/1999/xlink" x="0px" y="0px"
	 width="100px" height="71.5px" viewBox="0 0 100 71.5" enable-background="new 0 0 100 71.5" xml:space="preserve">
<text transform="matrix(1 0 0 1 11.3062 29.9077)" fill="#804998" font-family="'MyriadPro-Regular'" font-size="25.8078">Abc</text>
<path fill="#3999C6" d="M0,0.133v71.428h100V0.133H0z M7.143,64.417V7.275h85.712v0.092h0.055v52.236l-11.758-19.6l-13.916,11.6
	L56.592,33.865l-36.59,30.493H7.223v-0.006L7.143,64.417z"/>
<polygon fill="#0072C6" points="92.9,22.4 92.9,59.49 81.143,39.891 67.227,51.49 63.943,46.018 32.764,71.447 99.992,71.447 
	99.992,16.618 "/>
<g>
	<path fill="#68217A" d="M52.461,29.46c-0.592,0.31-1.906,0.723-3.58,0.723c-3.759,0-6.207-2.554-6.207-6.373
		c0-3.845,2.626-6.631,6.696-6.631c1.339,0,2.522,0.335,3.141,0.646l-0.516,1.754c-0.539-0.309-1.39-0.593-2.625-0.593
		c-2.859,0-4.404,2.116-4.404,4.722c0,2.89,1.854,4.67,4.327,4.67c1.287,0,2.139-0.335,2.78-0.62L52.461,29.46z"/>
	<path fill="#68217A" d="M35.462,17.153c-2.009,0-3.451,0.904-4.249,2.296h-0.052v-2.55l-2.24,1.826V26.7
		c0,1.109-0.051,2.374-0.103,3.225h1.957l0.103-2.064h0.078c0.927,1.651,2.369,2.348,4.171,2.348c2.781,0,5.587-2.219,5.587-6.683
		C40.741,19.733,38.552,17.153,35.462,17.153z M34.664,28.403c-1.648,0-2.961-1.084-3.399-2.658
		c-0.051-0.258-0.103-0.542-0.103-0.826v-2.245c0-0.361,0.078-0.671,0.129-0.929c0.463-1.729,1.905-2.787,3.451-2.787
		c2.42,0,3.708,2.142,3.708,4.645C38.449,26.468,37.033,28.403,34.664,28.403z"/>
	<polygon fill="#68217A" points="22.312,24.569 24.127,29.925 26.522,29.925 24.18,23.046 	"/>
</g>
</svg>
