<?xml version="1.0" encoding="utf-8"?>
<!-- Generator: Adobe Illustrator 16.0.0, SVG Export Plug-In . SVG Version: 6.00 Build 0)  -->
<!DOCTYPE svg PUBLIC "-//W3C//DTD SVG 1.1//EN" "http://www.w3.org/Graphics/SVG/1.1/DTD/svg11.dtd">
<svg version="1.1" id="Layer_1" xmlns="http://www.w3.org/2000/svg" xmlns:xlink="http://www.w3.org/1999/xlink" x="0px" y="0px"
	 width="92.75px" height="53.667px" viewBox="7.25 0 92.75 53.667" enable-background="new 7.25 0 92.75 53.667"
	 xml:space="preserve">
<g>
	<polygon fill="#3999C6" points="61.625,23.125 61.625,1.707 61.609,1.714 61.609,0 7.453,0 7.453,0.187 7.375,0.187 7.375,53.689 
		56.375,53.689 56.375,35.151 54.104,37.044 44.828,21.587 12.726,48.339 12.726,5.536 56.25,5.536 56.25,23.125 	"/>
	<circle fill="#3999C6" cx="26.103" cy="18.912" r="8.025"/>
</g>
<path fill="#0072C6" d="M64.566,0.085v25.307H100V0.085H64.566L64.566,0.085z M97.468,21.176l-5.062-8.437l-5.738,4.782
	l-4.388-7.313L67.097,22.862V2.616h30.368v18.56H97.468z M69.627,8.944c0-2.096,1.704-3.797,3.8-3.797
	c2.094,0,3.794,1.701,3.794,3.797s-1.7,3.796-3.794,3.796C71.331,12.739,69.627,11.041,69.627,8.944L69.627,8.944z"/>
<path fill="#0072C6" d="M64.566,28.36v25.308H100V28.36H64.566L64.566,28.36z M97.468,49.451l-5.062-8.438l-5.738,4.781
	l-4.388-7.312L67.097,51.137V30.889h30.368v18.562H97.468z M69.627,37.217c0-2.095,1.704-3.797,3.8-3.797
	c2.094,0,3.794,1.702,3.794,3.797c0,2.097-1.7,3.796-3.794,3.796C71.331,41.013,69.627,39.314,69.627,37.217L69.627,37.217z"/>
<polygon fill="#0072C6" points="56.25,22.292 56.25,35.241 54.085,37.044 48.865,28.345 17.79,53.688 56.25,53.688 56.333,53.688 
	61.625,53.688 61.625,17.894 "/>
</svg>
