<?xml version="1.0" encoding="utf-8"?>
<!-- Generator: Adobe Illustrator 16.0.0, SVG Export Plug-In . SVG Version: 6.00 Build 0)  -->
<!DOCTYPE svg PUBLIC "-//W3C//DTD SVG 1.1//EN" "http://www.w3.org/Graphics/SVG/1.1/DTD/svg11.dtd">
<svg version="1.1" id="Layer_1" xmlns="http://www.w3.org/2000/svg" xmlns:xlink="http://www.w3.org/1999/xlink" x="0px" y="0px"
	 width="278px" height="278px" viewBox="0 0 278 278" enable-background="new 0 0 278 278" xml:space="preserve">
<rect fill="#049580" width="278" height="278"/>
<rect y="20.691" fill="#049580" width="277.999" height="236.618"/>
<g>
	<defs>
		<rect id="SVGID_1_" width="278" height="278"/>
	</defs>
	<clipPath id="SVGID_2_">
		<use xlink:href="#SVGID_1_"  overflow="visible"/>
	</clipPath>
	<path clip-path="url(#SVGID_2_)" fill="#FFFFFF" d="M208.406,120.266c0-29.656-28.245-53.697-63.088-53.697
		c-34.842,0-63.087,24.041-63.087,53.697c0,21.956,15.49,40.823,37.669,49.146c-2.064,2.924-7.163,7.014-12.138,9.713
		c-9.715,5.273-21.164,7.989-31.767,11.969c-1.769,0.665-4.5,1.667-4.672,2.778c-0.786,5.062-0.817,10.218-1.113,15.247
		c1.322,0.372,1.926,0.61,2.557,0.71c29.96,4.736,57.194-1.279,81.764-14.627C180.028,181.35,208.406,158.801,208.406,120.266"/>
	<path clip-path="url(#SVGID_2_)" fill="#414142" d="M145.602,84.448c-22.969-0.138-41.862,15.498-42.137,34.872
		c-0.28,19.761,18.215,35.956,41.241,36.113c23.15,0.159,42.089-15.723,42.152-35.349C186.923,100.58,168.404,84.585,145.602,84.448
		"/>
	<polygon clip-path="url(#SVGID_2_)" fill="#FFFFFF" points="117.187,122.755 117.187,119.604 139.243,105.403 139.243,111.197 
		123.376,120.955 123.376,121.074 139.243,129.93 139.243,135.725 	"/>
	<polygon clip-path="url(#SVGID_2_)" fill="#FFFFFF" points="151.077,135.665 151.077,129.811 166.944,121.075 166.944,120.955 
		151.077,111.107 151.077,105.284 173.133,119.483 173.133,122.605 	"/>
</g>
</svg>
