<svg viewBox="0 0 278 278" xmlns:xlink="http://www.w3.org/1999/xlink" xmlns:svg="http://www.w3.org/2000/svg" class="msportalfx-svg-placeholder" focusable="false"><rect fill="#049580" width="278" height="278"></rect><rect fill="#049580" width="277.999" height="236.618" y="20.691"></rect><g><defs><rect id="SVGID_1_" width="278" height="278"></rect></defs><clipPath><use xlink:href="#SVGID_1_"></use></clipPath><path d="M208.406,120.266c0-29.656-28.245-53.697-63.088-53.697 c-34.842,0-63.087,24.041-63.087,53.697c0,21.956,15.49,40.823,37.669,49.146c-2.064,2.924-7.163,7.014-12.138,9.713 c-9.715,5.273-21.164,7.989-31.767,11.969c-1.769,0.665-4.5,1.667-4.672,2.778c-0.786,5.062-0.817,10.218-1.113,15.247 c1.322,0.372,1.926,0.61,2.557,0.71c29.96,4.736,57.194-1.279,81.764-14.627C180.028,181.35,208.406,158.801,208.406,120.266" class="msportalfx-svg-c01"></path><path fill="#414142" d="M146.344,84.448c-22.969-0.138-41.862,15.498-42.137,34.872 c-0.28,19.761,18.215,35.956,41.241,36.113c23.151,0.159,42.089-15.723,42.153-35.349 C187.665,100.58,169.146,84.585,146.344,84.448"></path><path d="M138.192,139.049c-3.08,0-5.34-0.559-6.78-1.676 c-1.439-1.118-2.158-2.937-2.158-5.459v-6.082c0-2.694-1.313-4.04-3.939-4.04v-3.31c2.626,0,3.939-1.418,3.939-4.255v-5.695 c0-2.493,0.732-4.335,2.196-5.524c1.465-1.189,3.712-1.783,6.742-1.783v3.395c-2.693,0-4.04,1.304-4.04,3.912v5.738 c0,3.094-1.254,5.029-3.762,5.802v0.086c2.508,0.688,3.762,2.579,3.762,5.674v5.717c0,1.418,0.307,2.457,0.922,3.116 c0.614,0.659,1.654,0.988,3.118,0.988V139.049z" class="msportalfx-svg-c01"></path><path d="M153.612,135.653c1.464,0,2.504-0.33,3.118-0.989 c0.615-0.659,0.922-1.697,0.922-3.116v-5.716c0-3.095,1.254-4.986,3.762-5.674v-0.086c-2.508-0.774-3.762-2.708-3.762-5.803v-5.738 c0-2.607-1.347-3.911-4.04-3.911v-3.396c3.03,0,5.277,0.595,6.742,1.784c1.464,1.189,2.196,3.03,2.196,5.523v5.695 c0,2.837,1.313,4.256,3.938,4.256v3.309c-2.626,0-3.938,1.347-3.938,4.041v6.082c0,2.521-0.72,4.341-2.158,5.458 c-1.44,1.118-3.7,1.677-6.78,1.677V135.653z" class="msportalfx-svg-c01"></path></g></svg>