<svg viewBox="0 0 100 65.167" xmlns:xlink="http://www.w3.org/1999/xlink" xmlns:svg="http://www.w3.org/2000/svg" class="msportalfx-svg-placeholder" focusable="false"><path d="M51.273,31.51C48.677,19.73,37.001,12.271,25.205,14.871 c-11.78,2.593-19.23,14.277-16.632,26.065c2.594,11.778,14.27,19.237,26.063,16.646C46.417,54.981,53.869,43.296,51.273,31.51z M32.739,26.766c1.443-0.364,2.966,0.569,3.293,2.023c0.325,1.454-0.644,2.952-2.106,3.242c-1.413,0.273-2.838-0.642-3.159-2.053 C30.447,28.583,31.348,27.112,32.739,26.766z M21.67,29.191c1.445-0.359,2.964,0.581,3.285,2.026 c0.323,1.463-0.649,2.943-2.113,3.243c-1.414,0.273-2.836-0.65-3.154-2.071C19.374,31.004,20.278,29.533,21.67,29.191z M32.752,50.857c-0.043,0.018-0.084,0.025-0.123,0.025c-10.769,2.269-16.915-9.101-16.979-9.211l0.007-0.009l2.22-0.488 c1.25,2.07,6.264,9.281,14.3,7.588c0.036,0,0.071-0.009,0.105-0.017C40.24,47,41.526,38.302,41.73,35.948l2.208-0.479 C43.913,36.018,43.253,48.558,32.752,50.857z" fill-rule="evenodd" class="msportalfx-svg-c15"></path><path d="M66.587,33.853c-2.122-0.871-5.133,1.377-6.58,4.901 c-1.453,3.524-0.89,7.245,1.224,8.109c2.113,0.873,5.123-1.378,6.578-4.893C69.263,38.438,68.698,34.726,66.587,33.853z" fill-rule="evenodd"></path><path d="M75.38,12.417c-8.272-3.387-17.426-1.292-23.431,4.603L57.51,51.91 c0.463,0.223,0.933,0.445,1.412,0.642c11.068,4.541,23.744-0.762,28.297-11.839C91.76,29.644,86.457,16.968,75.38,12.417z M60.975,23.583c0.53-1.317,2.104-2,3.421-1.496c1.386,0.526,2.087,2.151,1.531,3.52c-0.564,1.37-2.189,2.036-3.55,1.438 C61.068,26.471,60.435,24.914,60.975,23.583z M69.322,42.587c-1.855,4.49-5.68,7.039-8.716,5.781 c-3.028-1.248-3.952-5.739-2.104-10.238c1.849-4.491,5.671-7.031,8.699-5.783C70.238,33.595,71.171,38.096,69.322,42.587z M76.328,29.884c-0.556,1.368-2.189,2.036-3.541,1.446c-1.317-0.574-1.949-2.122-1.42-3.456c0.531-1.322,2.087-2.006,3.422-1.506 C76.167,26.899,76.876,28.515,76.328,29.884z" fill-rule="evenodd" class="msportalfx-svg-c16"></path><polygon points="52.006,0.345 50.06,6.066 50.725,10.11 53.214,2.796 97.327,17.808 82.317,61.924 57.888,53.612 58.243,55.773 83.525,64.375 99.778,16.601" class="msportalfx-svg-c09"></polygon><path d="M47.683,23.523L21.061,45.184c2.486,2.365,6.222,4.563,11.05,3.545 c0.036,0,0.071-0.009,0.105-0.017c7.958-1.746,9.244-10.444,9.446-12.798l2.209-0.479c-0.025,0.548-0.684,13.087-11.186,15.388 c-0.043,0.018-0.083,0.026-0.123,0.026c-5.805,1.222-10.264-1.518-13.153-4.321l-5.575,4.536c5.102,5.48,12.89,8.207,20.733,6.482 c11.781-2.601,19.233-14.285,16.638-26.071C50.555,28.523,49.334,25.842,47.683,23.523z" fill-rule="evenodd" class="msportalfx-svg-c16"></path><g><path d="M61.267,46.96c2.12,0.882,5.142-1.392,6.602-4.943 c1.181-2.886,1.035-5.89-0.186-7.399l-8.37,6.854C58.969,44.054,59.685,46.31,61.267,46.96z" fill-rule="evenodd" class="msportalfx-svg-c19"></path><path d="M76.154,27.568c0.345,0.68,0.425,1.495,0.129,2.24 c-0.559,1.381-2.198,2.057-3.556,1.46c-0.228-0.1-0.429-0.239-0.613-0.392l-3.3,2.701c1.626,1.987,1.883,5.525,0.437,9.063 c-1.862,4.536-5.701,7.11-8.748,5.84c-1.944-0.806-3.019-2.957-3.059-5.59l-1.328,1.087l1.279,8.081 c0.464,0.225,0.936,0.45,1.416,0.648c11.109,4.586,23.833-0.77,28.4-11.96c2.859-7.014,1.829-14.666-2.079-20.531L76.154,27.568z" fill-rule="evenodd" class="msportalfx-svg-c19"></path></g><g><path d="M8.654,65.159L0,15.034L50.124,6.38l8.655,50.123L8.654,65.159z M2.232,16.609l7.998,46.317l46.316-7.999 L48.548,8.611L2.232,16.609z" class="msportalfx-svg-c09"></path></g></svg>