<svg viewBox="0 0 100 55.167" xmlns:xlink="http://www.w3.org/1999/xlink" xmlns:svg="http://www.w3.org/2000/svg" class="msportalfx-svg-placeholder" focusable="false"><circle cx="82.947" cy="27.88" r="3.674" class="msportalfx-svg-c01"></circle><path d="M67.305,27.88c0,2.028,1.643,3.672,3.674,3.672c2.028,0,3.672-1.645,3.672-3.672 c0-2.03-1.644-3.675-3.672-3.675C68.945,24.205,67.305,25.85,67.305,27.88z" class="msportalfx-svg-c01"></path><path d="M41.261,28.355C41.51,40.951,54.802,50.898,70.947,50.58c3.637-0.065,7.104-0.66,10.3-1.668l14.819,6.383 c0,0-5.018-10.156-0.418-16.063l0,0c2.67-3.526,4.175-7.651,4.09-12.027C99.489,14.611,86.199,4.657,70.051,4.979 C53.9,5.298,41.012,15.759,41.261,28.355z M79.396,27.8c0-1.99,1.613-3.603,3.604-3.603s3.603,1.613,3.603,3.603 c0,1.987-1.611,3.602-3.603,3.602S79.396,29.787,79.396,27.8z M67.393,27.8c0-1.99,1.612-3.603,3.601-3.603 c1.991,0,3.603,1.613,3.603,3.603c0,1.987-1.611,3.602-3.603,3.602C69.005,31.402,67.393,29.787,67.393,27.8z M55.384,27.8 c0-1.99,1.611-3.603,3.603-3.603c1.99,0,3.604,1.613,3.604,3.603c0,1.987-1.614,3.602-3.604,3.602S55.384,29.787,55.384,27.8z" class="msportalfx-svg-c10"></path><rect width="53.891" height="54.708" class="msportalfx-svg-c03"></rect><polygon points="0,51.593 0,54.982 53.891,54.982 53.891,7.748" class="msportalfx-svg-c04"></polygon><g><rect width="38.162" height="1.847" x="7.863" y="26.671" class="msportalfx-svg-c01"></rect><rect width="38.162" height="1.846" x="7.863" y="19.903" class="msportalfx-svg-c01"></rect><rect width="38.162" height="1.849" x="7.863" y="33.442" class="msportalfx-svg-c01"></rect><rect width="31.937" height="1.847" x="7.863" y="40.212" class="msportalfx-svg-c01"></rect><rect width="15.935" height="1.849" x="7.863" y="13.131" class="msportalfx-svg-c01"></rect></g><path d="M72.59,22.153l-10.049-3.874l3.407-1.707c-2.798-4.176-8.694-9.259-20.979-10.046 c0,0,16.043-7.006,26.529,7.265l4.003-2.005L72.59,22.153z" class="msportalfx-svg-c15"></path><path d="M99.738,27.204c-0.098-4.838-2.123-9.281-5.49-12.909l-12.436,10.12c0.375-0.132,0.77-0.217,1.188-0.217 c1.99,0,3.602,1.613,3.602,3.603c0,1.988-1.61,3.602-3.602,3.602s-3.604-1.614-3.604-3.602c0-0.679,0.197-1.306,0.522-1.848 L54.232,46.854c4.772,2.461,10.531,3.849,16.715,3.726c3.637-0.065,7.104-0.66,10.3-1.668l14.819,6.383 c0,0-5.018-10.156-0.418-16.063C98.318,35.703,99.823,31.58,99.738,27.204z" class="msportalfx-svg-c09"></path><circle cx="82.975" cy="27.88" r="3.675" class="msportalfx-svg-c02"></circle></svg>