<svg viewBox="0 0 278 278" xmlns:xlink="http://www.w3.org/1999/xlink" xmlns:svg="http://www.w3.org/2000/svg" class="msportalfx-svg-placeholder" focusable="false">
  <rect fill="#049580" width="277.999" height="277.999" y="0.001"></rect>
  <rect fill="#049580" width="278" height="236.62" y="20.69"></rect>
  <g>
    <defs>
      <rect id="SVGID_1_" width="278" height="278"></rect>
    </defs>
    <clipPath>
      <use xlink:href="#SVGID_1_"></use>
    </clipPath>
    <path d="M55.141,141.018v-20.004c0.578-2.908,1.251-5.806,1.719-8.728 c2.164-13.53,12.887-27.302,32.409-30.192c33.234-4.919,66.468-5.107,99.647,0.09c18.075,2.83,28.047,12.888,31.73,27.73 c3.42,13.78,3.123,27.658,0.355,41.504c-2.67,13.354-13.669,26.851-33.821,28.94c-13.155,1.364-26.379,2.267-39.56,3.473 c-1.834,0.168-3.834,0.584-5.354,1.419c-7.39,4.061-11.47,8.644-22.054,12.294c-8.64,3.186-27.024,6.644-28.409,6.28 c-0.639-0.853,12.923-13.629,14.039-21.317c-4.765-0.619-8.344-1.088-11.924-1.55c-20.667-2.668-32.828-12.38-36.76-29.444 C56.359,148.036,55.808,144.517,55.141,141.018" class="msportalfx-svg-c01"></path>
    <path fill="#414142" d="M161.557,163.852c3.339-0.4,5.847-0.703,8.356-1.002 c14.484-1.725,23.007-8.003,25.763-19.034c0.562-2.246,0.947-4.521,1.416-6.784v-12.931c-0.406-1.881-0.877-3.754-1.205-5.642 c-1.518-8.747-9.032-17.65-22.714-19.518c-23.291-3.18-46.583-3.301-69.837,0.058c-12.667,1.83-19.656,8.332-22.238,17.926 c-2.397,8.908-2.189,17.879-0.249,26.83c1.872,8.633,9.651,16.959,23.703,18.708C125.207,165.035,161.557,163.852,161.557,163.852"></path>
    <path d="M105.629,130.385c-0.001-3.143,2.89-5.59,6.588-5.578 c3.661,0.012,6.588,2.533,6.548,5.64c-0.039,3.025-2.986,5.523-6.54,5.543C108.583,136.011,105.63,133.501,105.629,130.385" class="msportalfx-svg-c01"></path>
    <path d="M166.438,124.807c3.699-0.011,6.584,2.436,6.579,5.581 c-0.003,3.12-2.952,5.624-6.597,5.601c-3.553-0.022-6.501-2.523-6.54-5.547C159.842,127.341,162.778,124.818,166.438,124.807" class="msportalfx-svg-c01"></path>
    <path d="M139.284,135.986c-3.644-0.018-6.612-2.582-6.541-5.653 c0.069-3.043,3-5.511,6.561-5.526c3.639-0.015,6.605,2.508,6.601,5.611C145.9,133.534,142.964,136.004,139.284,135.986" class="msportalfx-svg-c01"></path>
  </g>
</svg>