<svg aria-labelledby="titleID" viewBox="0 0 95 95" xmlns:xlink="http://www.w3.org/1999/xlink" xmlns:svg="http://www.w3.org/2000/svg" class="msportalfx-svg-placeholder" focusable="false">
  <title id="titleID">Recommendations_updated</title>
  <rect width="95" height="95" style="fill: rgb(1, 150, 129);"></rect>
  <path d="M42,24.16H53v5.12l5.89,2.1,4-3.6,8,6.78L66.52,38l2.39,4.88h6v9.35h-6l-2.46,5,4.23,3.37-7.9,6.73L58.87,63.7l-6,2.1v5H42v-5l-5.84-2.07-4,3.6-8-6.85,4.36-3.26-2.52-5H20.08V42.86H26l2.44-5-4.23-3.37,8-6.8,4,3.62,5.79-2V24.16Z" style="fill: rgb(255, 255, 255);"></path>
  <ellipse cx="47.5" cy="47.5" rx="22.73" ry="19.35" style="fill: rgb(255, 255, 255);"></ellipse>
  <path d="M47.65,35.37c-7.85,0-14.3,5.3-14.4,11.92s6.22,12.29,14.09,12.34,14.38-5.37,14.4-12.08S55.44,35.42,47.65,35.37Z" style="fill: rgb(65, 65, 66);"></path>
  <path d="M55.43,45.61a0.6,0.6,0,0,0-.16-0.25A0.83,0.83,0,0,0,55,45.2a1.38,1.38,0,0,0-.45-0.06H49.3a10.25,10.25,0,0,1,.35-1l0.18-.44a4.41,4.41,0,0,1,.2-0.44l0.21-.41a3.19,3.19,0,0,1,.22-0.35l0.37-.5a3.64,3.64,0,0,0,.34-0.61,4.17,4.17,0,0,0,.25-0.77,4.4,4.4,0,0,0,.1-1,1.28,1.28,0,0,0-.07-0.43A1,1,0,0,0,51,38.62a0.78,0.78,0,0,0-.35-0.08,0.91,0.91,0,0,0-.35.07,1.17,1.17,0,0,0-.35.23,2,2,0,0,0-.33.4,3.34,3.34,0,0,0-.29.59,4.53,4.53,0,0,1-.59,1.11,6.26,6.26,0,0,1-.83.92,8.4,8.4,0,0,1-1,.78q-0.54.36-1.11,0.7a8.22,8.22,0,0,0-1.34.94,4.91,4.91,0,0,0-.82.92,3.06,3.06,0,0,0-.42.89,3.32,3.32,0,0,0-.1.62H39.54v8.2h3.54V53.79h0a0.46,0.46,0,0,0,.22.24,2.61,2.61,0,0,0,.62.25,8.74,8.74,0,0,0,.92.2l1.1,0.16,1.19,0.12,1.17,0.08h1.82A2.37,2.37,0,0,0,51,54.78a2.46,2.46,0,0,0,.64-0.33,3.31,3.31,0,0,0,.5-0.45,7.61,7.61,0,0,0,.48-0.61A1,1,0,0,0,52.8,53a1.41,1.41,0,0,1,.07-0.43,1.51,1.51,0,0,0,.07-0.46,1.79,1.79,0,0,1,.16-0.49,1.26,1.26,0,0,1,.23-0.33l0.31-.34a3.83,3.83,0,0,0,.31-0.4,1.58,1.58,0,0,0,.23-0.5,2.62,2.62,0,0,0,0-.37v-1a2,2,0,0,1,0-.34A2.09,2.09,0,0,1,54.5,48l0.2-.37,0.21-.36L55.07,47a2.52,2.52,0,0,0,.16-0.25,2.17,2.17,0,0,0,.13-0.28,2.27,2.27,0,0,0,.09-0.3,1.28,1.28,0,0,0,0-.29A0.91,0.91,0,0,0,55.43,45.61Z" style="fill: rgb(255, 255, 255);"></path>
</svg>