<?xml version="1.0" encoding="utf-8"?>
<!-- Generator: Adobe Illustrator 16.0.0, SVG Export Plug-In . SVG Version: 6.00 Build 0)  -->
<!DOCTYPE svg PUBLIC "-//W3C//DTD SVG 1.1//EN" "http://www.w3.org/Graphics/SVG/1.1/DTD/svg11.dtd">
<svg version="1.1" id="Layer_1" xmlns="http://www.w3.org/2000/svg" xmlns:xlink="http://www.w3.org/1999/xlink" x="0px" y="0px"
	 width="100px" height="100px" viewBox="0 0 100 100" enable-background="new 0 0 100 100" xml:space="preserve">
<rect x="0.082" fill="#59B4D9" width="100" height="100"/>
<path fill="#FFFFFF" d="M39.259,23.767c11.003,0,20.39,6.915,24.055,16.634c1.728-0.556,3.568-0.858,5.479-0.858
	c9.841,0,17.816,7.976,17.816,17.816c0,9.839-7.976,17.816-17.816,17.816c-5.235,0-23.332,0-29.533,0
	c-14.195,0-25.704-11.509-25.704-25.705C13.555,35.274,25.063,23.767,39.259,23.767z"/>
<g>
	<g>
		<path fill="#59B4D9" d="M49.078,67.522c-7.273,0-13.191-5.917-13.191-13.191c0-7.273,5.918-13.191,13.191-13.191
			c7.274,0,13.191,5.918,13.191,13.191c0,0.68-0.051,1.358-0.153,2.024c-0.09,0.577-0.63,0.974-1.208,0.885
			c-0.577-0.089-0.975-0.63-0.885-1.208c0.085-0.559,0.13-1.131,0.13-1.701c0-6.106-4.968-11.074-11.075-11.074
			c-6.106,0-11.074,4.968-11.074,11.074c0,6.107,4.968,11.075,11.074,11.075c3.167,0,6.188-1.359,8.291-3.731
			c0.387-0.436,1.056-0.477,1.494-0.089c0.438,0.388,0.477,1.058,0.088,1.494C56.447,65.903,52.849,67.522,49.078,67.522z"/>
	</g>
	<g>
		<path fill="#59B4D9" d="M53.761,59.511c-0.084,0-0.169-0.011-0.252-0.031c-0.305-0.074-0.559-0.279-0.698-0.559l-2.819-5.713
			l-1.694,3.447c-0.178,0.362-0.547,0.592-0.95,0.592H42.16c-0.584,0-1.059-0.474-1.059-1.059s0.474-1.059,1.059-1.059h4.528
			l2.352-4.785c0.177-0.361,0.545-0.591,0.948-0.591c0,0,0.001,0,0.001,0c0.403,0,0.771,0.229,0.95,0.589l3.216,6.515l2.098-1.524
			c0.18-0.132,0.398-0.203,0.622-0.203h4.151c0.583,0,1.058,0.474,1.058,1.059s-0.475,1.059-1.058,1.059h-3.808l-2.834,2.062
			C54.201,59.44,53.982,59.511,53.761,59.511z"/>
	</g>
	<g>
		<path fill="#59B4D9" d="M63.383,68.28c-0.258,0-0.517-0.094-0.72-0.283l-5.09-4.721c-0.428-0.397-0.453-1.068-0.055-1.496
			c0.398-0.429,1.067-0.453,1.495-0.056l5.089,4.721c0.429,0.397,0.454,1.068,0.056,1.496C63.949,68.167,63.667,68.28,63.383,68.28z
			"/>
	</g>
</g>
</svg>
