<?xml version="1.0" encoding="utf-8"?>
<!-- Generator: Adobe Illustrator 16.0.0, SVG Export Plug-In . SVG Version: 6.00 Build 0)  -->
<!DOCTYPE svg PUBLIC "-//W3C//DTD SVG 1.1//EN" "http://www.w3.org/Graphics/SVG/1.1/DTD/svg11.dtd">
<svg version="1.1" id="Layer_1" xmlns="http://www.w3.org/2000/svg" xmlns:xlink="http://www.w3.org/1999/xlink" x="0px" y="0px"
	 width="108.833px" height="74.332px" viewBox="0 0 108.833 74.332" enable-background="new 0 0 108.833 74.332"
	 xml:space="preserve">
<g>
	<path fill="#DD5900" d="M105.791,74.403h3.277c-0.225-6.268-2.773-12.124-7.223-16.584l0,0c-2.642-2.64-5.769-4.615-9.181-5.825
		c1.803-0.894,3.46-2.087,4.921-3.554c3.538-3.537,5.485-8.244,5.485-13.248c0-5.009-1.947-9.715-5.485-13.252
		c-3.531-3.538-8.231-5.486-13.229-5.486c-4.999,0-9.703,1.948-13.237,5.486c-3.534,3.537-5.48,8.243-5.48,13.252
		c0,5.004,1.946,9.711,5.48,13.248c1.469,1.467,3.13,2.66,4.932,3.554c-3.412,1.216-6.55,3.186-9.185,5.825
		c-4.451,4.46-6.998,10.316-7.226,16.584h3.277H105.791L105.791,74.403z M105.791,74.403"/>
</g>
<g>
	<path fill="#A0A1A2" d="M1.85,35.477c1.319-0.631,2.716-0.633,4.04-0.002c3.543,1.688,4.594,8.094,5.706,14.875
		c0.545,3.311,1.446,8.793,2.485,9.703c0.027-0.012,0.065-0.03,0.106-0.054c2.419-1.397,3.981-6.28,5.238-10.203
		c1.315-4.11,2.268-7.082,4.311-8.034c0.79-0.369,1.654-0.385,2.487-0.042c2.47,1.01,3.707,4.528,5.14,8.606
		c0.873,2.483,2.19,6.24,3.266,6.677c0.023,0.011,0.079,0.033,0.272-0.063c1.755-0.869,4.236-5.24,6.231-8.753
		c3.45-6.077,6.433-11.321,10.24-9.903c2.922,1.091,3.823,3.756,4.619,6.107c0.546,1.621,1.077,3.17,2.203,4.291V32.696
		c0-2.855-2.875-5.171-6.419-5.171H6.417C2.875,27.524,0,29.84,0,32.696v4.15C0.579,36.266,1.193,35.79,1.85,35.477z"/>
	<path fill="#A0A1A2" d="M13.547,74.331H52.8c3.057-0.396,5.396-2.523,5.396-5.098V52.897c-0.628-0.271-1.101-0.614-1.101-0.614
		l0.004-0.004c-2.729-1.765-3.665-4.521-4.424-6.767c-0.742-2.197-1.225-3.463-2.526-3.948c-1.271,0.07-4.329,5.457-5.973,8.351
		c-2.572,4.534-5.005,8.817-7.72,10.162c-1.049,0.52-2.138,0.58-3.147,0.169c-2.534-1.032-3.854-4.785-5.249-8.759
		c-0.757-2.155-1.996-5.68-2.981-6.424c-0.713,0.787-1.67,3.775-2.319,5.801c-1.514,4.731-3.232,10.094-6.822,12.166
		c-0.71,0.411-1.355,0.557-1.911,0.557c-0.551,0-1.011-0.143-1.369-0.312c-2.564-1.214-3.386-5.485-4.515-12.356
		c-0.744-4.533-1.869-11.383-3.76-12.284c-0.367-0.175-0.653-0.176-1.023,0.002c-1.134,0.54-2.31,2.327-3.358,4.548v26.049
		c0,2.856,2.875,5.17,6.417,5.17h7.13V74.331z"/>
</g>
<polygon fill="#0072C6" points="69.389,59.207 43.018,59.207 43.018,68.248 69.389,68.248 69.389,71.077 76.546,63.533 
	69.389,56.375 "/>
<path fill="#0072C6" d="M44.58,35.784h7.174v-6.936H44.58V35.784z M56.557,2.662c-2.385-1.726-5.389-2.585-9-2.585
	c-2.746,0-5.066,0.6-6.955,1.815c-2.988,1.906-4.586,5.133-4.773,9.688h6.93c0-1.323,0.389-2.606,1.162-3.834
	c0.77-1.234,2.084-1.855,3.934-1.855c1.881,0,3.18,0.506,3.885,1.507c0.711,0.996,1.068,2.105,1.068,3.324
	c0,1.053-0.314,2.017-0.957,2.9c-0.346,0.512-0.814,0.987-1.385,1.416l-1.746,1.368c-1.723,1.34-2.789,2.526-3.205,3.558
	c-0.414,1.036-0.67,2.897-0.766,5.6h6.502c0.016-1.278,0.117-2.228,0.316-2.828c0.299-0.958,0.914-1.801,1.838-2.521l1.695-1.319
	c1.725-1.341,2.885-2.446,3.49-3.308c1.039-1.421,1.555-3.171,1.555-5.252C60.145,6.951,58.949,4.388,56.557,2.662z"/>
</svg>
