<svg viewBox="0 0 100 92.833" xmlns:xlink="http://www.w3.org/1999/xlink" xmlns:svg="http://www.w3.org/2000/svg" class="msportalfx-svg-placeholder" focusable="false">
  <rect width="73.591" height="78.831" class="msportalfx-svg-c13"></rect>
  <polygon points="0,78.417 0,78.831 73.591,78.831 73.591,18.542" class="msportalfx-svg-c14"></polygon>
  <g>
    <circle cx="12.793" cy="14.44" r="3.361" class="msportalfx-svg-c01"></circle>
    <path d="M64.16,14.44c0,1.448-1.176,2.621-2.621,2.621H22.96c-1.447,0-2.62-1.173-2.62-2.621l0,0 c0-1.448,1.173-2.62,2.62-2.62h38.579C62.984,11.821,64.16,12.993,64.16,14.44L64.16,14.44z" class="msportalfx-svg-c01"></path>
  </g>
  <g>
    <circle cx="12.793" cy="26.706" r="3.361" class="msportalfx-svg-c01"></circle>
    <path d="M64.16,26.706c0,1.447-1.176,2.621-2.621,2.621H22.96c-1.447,0-2.62-1.174-2.62-2.621l0,0 c0-1.448,1.173-2.621,2.62-2.621h38.579C62.984,24.085,64.16,25.258,64.16,26.706L64.16,26.706z" class="msportalfx-svg-c01"></path>
  </g>
  <g>
    <circle cx="12.793" cy="38.971" r="3.361" class="msportalfx-svg-c01"></circle>
    <path d="M64.16,38.971c0,1.447-1.176,2.62-2.621,2.62H22.96c-1.447,0-2.62-1.173-2.62-2.62l0,0 c0-1.448,1.173-2.621,2.62-2.621h38.579C62.984,36.35,64.16,37.523,64.16,38.971L64.16,38.971z" class="msportalfx-svg-c01"></path>
  </g>
  <g>
    <circle cx="12.793" cy="51.236" r="3.361" class="msportalfx-svg-c01"></circle>
    <path d="M64.16,51.236c0,1.446-1.176,2.62-2.621,2.62H22.96c-1.447,0-2.62-1.174-2.62-2.62l0,0 c0-1.448,1.173-2.622,2.62-2.622h38.579C62.984,48.615,64.16,49.79,64.16,51.236L64.16,51.236z" class="msportalfx-svg-c01"></path>
  </g>
  <g>
    <circle cx="12.793" cy="63.501" r="3.361" class="msportalfx-svg-c01"></circle>
    <path d="M64.16,63.5c0,1.446-1.176,2.621-2.621,2.621H22.96c-1.447,0-2.62-1.175-2.62-2.621l0,0 c0-1.447,1.173-2.621,2.62-2.621h38.579C62.984,60.879,64.16,62.053,64.16,63.5L64.16,63.5z" class="msportalfx-svg-c01"></path>
  </g>
  <path d="M99.572,81.741c0,6.081-4.571,11.012-10.211,11.012H48.976c-5.639,0-10.21-4.931-10.21-11.012v-43.55 c0-6.081,4.571-11.01,10.21-11.01h40.385c5.64,0,10.211,4.93,10.211,11.01V81.741z" class="msportalfx-svg-c17"></path>
  <path d="M41.23,88.9c1.872,2.354,4.646,3.851,7.746,3.851h40.385c5.64,0,10.211-4.929,10.211-11.01v-40.31 L41.23,88.9z" class="msportalfx-svg-c20"></path>
  <g>
    <path d="M88.686,41.93c-0.193-0.324-0.543-0.525-0.92-0.525H72.628c-0.376,0-0.724,0.201-0.916,0.525 c-0.188,0.327-0.192,0.73-0.008,1.06l7.567,13.464c0.188,0.336,0.541,0.543,0.926,0.543c0.384,0,0.738-0.207,0.927-0.543 l7.567-13.464C88.878,42.66,88.873,42.257,88.686,41.93z" class="msportalfx-svg-c01"></path>
    <circle cx="57.878" cy="48.736" r="8.193" class="msportalfx-svg-c01"></circle>
    <path d="M87.169,64.731h-13.94c-0.412,0-0.748,0.334-0.748,0.744v13.939c0,0.414,0.336,0.748,0.748,0.748h13.94 c0.41,0,0.747-0.334,0.747-0.748V65.475C87.916,65.065,87.579,64.731,87.169,64.731z" class="msportalfx-svg-c01"></path>
    <path d="M58.295,64.053c-0.229-0.229-0.602-0.229-0.833,0l-7.778,7.779c-0.232,0.23-0.232,0.604,0,0.832l7.778,7.78 c0.229,0.229,0.604,0.229,0.833,0l7.781-7.78c0.229-0.229,0.229-0.604,0-0.832L58.295,64.053z" class="msportalfx-svg-c01"></path>
  </g>
</svg>